<?xml version="1.0" encoding="utf-8"?>
<!-- Generator: Adobe Illustrator 20.1.0, SVG Export Plug-In . SVG Version: 6.00 Build 0)  -->
<svg version="1.1" id="Layer_1" xmlns="http://www.w3.org/2000/svg" xmlns:xlink="http://www.w3.org/1999/xlink" x="0px" y="0px"
	 viewBox="0 0 400 255" style="enable-background:new 0 0 400 255;" xml:space="preserve">
<style type="text/css">
	.st0{fill:#EA2F3D;}
</style>
<g>
	<path class="st0" d="M396.7,124.6c-0.4,0-0.5-0.2-0.9-0.3c-0.7-0.2-1.4-0.2-2.1-0.3c-0.3,0,0.3,0.4-0.3,0.4c-1.2,0-1.4,0-2.6,0
		c0-0.1,0-0.3,0-0.4c-0.7-0.1-0.7,0.2-1.2,0.2c-0.3-0.5-0.9-0.2-1.5-0.2c-0.7,0-2-0.1-2.2-0.2c-0.6-0.2-0.8,0-1.4,0.1
		c-0.5,0.1-0.8,0-1.2,0c0.2-0.5-0.4-0.4-0.7-0.4c-0.1,0-0.2-0.2-0.3-0.2c-0.3-0.1-0.6-0.3-0.9-0.3c-0.4-0.1-0.7,0-1,0
		c-0.2,0-0.3-0.2-0.5-0.2c-0.3-0.1-0.3-0.1-0.5-0.2c-0.1-0.1,0.2-0.2,0.2-0.2c0,0-0.3-0.1-0.3-0.2c-0.1-0.2,0-0.5-0.2-0.7
		c-0.2-0.2-0.7-0.1-1.2-0.3c-0.3-0.1-0.4-0.5-0.7-0.8c-0.1-0.1-0.6-0.1-0.7-0.2c-0.1-0.1,0.2-0.2,0.2-0.2c-0.1-0.2-0.5,0.1-0.7,0
		c-0.1,0,0.2-0.2,0.2-0.2c0,0-0.5-0.1-0.5-0.1c-0.1-0.1-0.3-0.1-0.3-0.1c0,0-0.1-0.3-0.2-0.3c-0.3-0.1-0.6,0.1-0.7,0.1
		c-0.2,0-0.1-0.3-0.5-0.2c-0.2,0-0.4,0.2-0.7,0.2c0,0-0.2-0.2-0.3-0.2c-0.3-0.1-0.6,0-0.9,0c-0.4-0.1-0.4-0.3-0.7-0.2
		c0,0-0.1,0.2-0.2,0.2c-0.2,0.1-0.5-0.1-0.7,0c-0.2,0.1-0.1,0.5-0.5,0.6c-0.7,0.1-0.3,0-0.5,0.3c0,0-0.4,0.1-0.3,0.1
		c-0.1,0.2,0.1,0.3,0.2,0.4c-0.5,0.1-0.7,0.3-1.2,0.4c0,0.3,0.4,0.6,0,0.9c-0.3-0.3-1.1-0.2-1.4-0.3c-0.1,0-0.1-0.3-0.2-0.3
		c-0.2-0.1-0.5,0-0.7,0c-0.2,0-0.2-0.2-0.5-0.2c-0.3,0-1-0.1-1.4-0.1c-0.1,0-0.2,0.3-0.3,0.3c-0.2,0-0.6-0.3-0.9-0.1
		c-0.4,0.2-0.5,0.5-0.9,0.8c-0.1,0.1-0.4,0-0.5,0c-0.4,0.1-0.2,0.4-0.7,0.4c-0.4,0.1-0.8-0.2-1.2-0.2c-0.3,0-0.6,0.1-1,0.1
		c-0.7,0-1.8,0-2.1-0.1c-0.2-0.1-0.3,0-0.3,0c-0.5-0.1-0.5-0.2-0.9-0.2c-0.3,0-0.4,0.1-0.7,0.1c-0.6,0-1.4-0.1-1.9-0.1
		c-0.2,0-0.5-0.2-0.7-0.2c-0.8-0.2-1.4,0.1-1.9-0.1c0,0-1-0.2-1-0.2c-0.3,0-0.5,0.3-1,0.2c-0.9-0.1-1.4-0.6-2.1-0.7
		c-0.3,0-0.5,0.1-0.9,0.1c-0.5,0-0.9-0.1-1.4-0.1c-0.5,0-1.3,0.4-1.7,0.1c-0.4-0.3-1.5,0.1-2.1,0.1c-0.3,0-0.4-0.1-0.7-0.2
		c-0.8-0.2-1,0.1-1.5,0.1c-1.5,0.2-2.1-0.5-3.2-0.4c-0.4,0-0.8,0.3-1.2,0.3c-0.4,0-0.7-0.3-1-0.3c-0.5-0.1-1.5-0.1-2.2-0.2
		c-0.4-0.1-0.7-0.3-1-0.3c-0.3,0-0.6,0.1-1,0.1c-0.3,0-0.9-0.1-1-0.1c-0.4,0.1-0.1,0.3-0.5,0.2c-0.4-0.1-1.3,0.4-1.7,0.4
		c-0.1,0-0.7-0.5-0.9-0.1c0.1-0.1,0.2-0.2,0.2-0.4c-0.3,0-0.5-0.3-0.9-0.3c-0.3,0-0.8,0.1-1.4,0.1c-0.4,0-0.7-0.2-0.9,0.1
		c-0.4,0-0.3-0.4-0.9-0.3c0,0.3,0.3,0.3-0.2,0.4c-0.3-0.3-0.8-0.3-1.4-0.3c-0.1-0.1-0.1-0.3-0.2-0.3c-0.1-0.1-0.2-0.3-0.3-0.4
		c0.4,0,0.7,0.1,1.1,0.1c1-0.1,2.5,0,3.6-0.1c0.2,0,0.5-0.2,0.7-0.2c0.4-0.1,0.9,0,1.2-0.1c0.3-0.1,0.5-0.3,0.9-0.3
		c0,0,0.2,0.2,0.2,0.2c0.2,0,0.2-0.1,0.3-0.1c-0.6-0.7,0.7-0.8,0.7-1.4c-0.8,0-1.2-0.3-2.1-0.2c-0.4,0-0.7,0.2-1.2,0.2
		c-0.3,0-0.5-0.2-0.9-0.2c-0.6-0.1-0.7,0-1,0c-0.2,0-0.2-0.1-0.5-0.1c-0.4,0-1,0.1-1.4,0.1c-0.6,0.1-2.2,0.2-2.6,0.2
		c-0.2,0-0.5-0.1-0.8-0.2c0-0.4,0-0.9-0.1-1.2c-0.1-0.3-0.4-0.1-0.8-0.7c-0.2-0.3-0.3-1.1-0.4-1.5c-0.1-0.2-0.4-0.2-0.4-0.4
		c-0.1-0.1,0.1-0.3,0.1-0.4c-0.1-0.5-0.3,0.1-0.4,0c0,0,0.1-0.4,0.1-0.4c0,0-0.3-0.2-0.3-0.2c-0.1-0.1-0.2-0.1-0.2-0.2
		c0-0.1-0.1-0.6-0.1-0.7c-0.2-0.2-0.4,0.3-0.4,0.2c-0.1,0-0.1-0.5-0.3-0.4c-0.1,0-0.2,0.5-0.4,0.4c0,0-0.1-0.4-0.2-0.4
		c-0.2-0.1-0.4,0.1-0.5,0c-0.2-0.1-0.2-0.5-0.4-0.4c0,0-0.1,0.4-0.1,0.4c-0.1,0.1-0.3-0.1-0.4,0c-0.1,0.2,0,0.9-0.3,1.1
		c-0.4,0.3-0.2,0-0.3,0.7c0,0.1-0.2,0.3-0.2,0.2c0,0.4,0,0.7,0.1,0.9c-0.3,0.2-0.5,0.7-0.8,0.9c0,0.7,0.3,1.2,0,1.8
		c-0.2-0.6-0.7-0.4-0.9-0.7c0-0.1-0.1-0.6-0.1-0.7c-0.1-0.1-0.3,0.1-0.4,0c-0.1-0.1-0.1-0.3-0.3-0.4c-0.2-0.1-0.7-0.3-0.9-0.2
		c0,0-0.1,0.6-0.2,0.7c-0.1,0.1-0.4-0.5-0.5-0.2c-0.2,0.4-0.3,1.1-0.6,1.5c-0.1,0.1-0.3-0.1-0.3,0c-0.3,0.3-0.1,0.7-0.4,0.9
		c-0.3,0.1-0.5-0.4-0.8-0.4c-0.2,0-0.4,0.2-0.7,0.2c-0.4,0-1.1,0-1.3-0.2c-0.1-0.1-0.2,0-0.2,0c-0.3-0.1-0.3-0.4-0.6-0.4
		c-0.2-0.1-0.2,0.2-0.4,0.2c-0.4,0-0.9-0.1-1.2-0.2c-0.1,0-0.3-0.3-0.4-0.4c-0.5-0.3-0.9,0.1-1.2-0.2c0,0-0.7-0.4-0.7-0.4
		c-0.2,0-0.3,0.6-0.7,0.4c-0.6-0.2-0.9-1.1-1.3-1.3c-0.2-0.1-0.3,0.2-0.6,0.2c-0.3,0-0.6-0.3-0.9-0.2c-0.3,0.1-0.8,0.9-1.1,0.2
		c-0.2-0.6-1,0.3-1.3,0.2c-0.2,0-0.2-0.3-0.4-0.4c-0.5-0.4-0.7,0.1-1,0.2c-1,0.3-1.4-1.1-2.1-0.9c-0.3,0.1-0.5,0.7-0.8,0.7
		c-0.2,0-0.4-0.5-0.7-0.7c-0.3-0.2-1-0.1-1.4-0.4c-0.3-0.2-0.4-0.6-0.7-0.7c-0.2,0-0.4,0.2-0.7,0.2c-0.2,0-0.5-0.3-0.7-0.2
		c-0.3,0.1-0.1,0.6-0.3,0.4c-0.3-0.1-0.9,0.9-1.1,0.9c0,0-0.5-1-0.6-0.2c0-0.3,0.2-0.4,0.1-0.9c-0.2,0-0.3-0.6-0.6-0.7
		c-0.2-0.1-0.5,0.3-0.9,0.2c-0.3,0-0.4-0.4-0.6,0.2c-0.3-0.1-0.2-0.8-0.6-0.7c0,0.6,0.2,0.7-0.1,0.9c-0.3-1.1-1-0.4-1.4-0.4
		c-0.6-0.1-1.4-0.8-2.2-0.4c-0.3,0.4-0.6,1.6-1,1.1c0-0.3,0.3-0.2,0.2-0.7c-1-0.5-0.8,0.9-1.4,0.9c-0.1-0.4,0.2-0.5,0.2-0.7
		c0-0.2-0.4,0-0.3-0.7c0.4-0.2,1.2-0.4,1.4-0.4c0.1,0,0.2,0.3,0.3,0.2c0.2-0.1,0.3-0.4,0.4-0.4c0.6-0.1,1.2,0.2,1.8,0
		c0.2-0.1,0.4-0.4,0.6-0.4c0.3,0,0.6,0.3,1,0.2c0.6-0.2,1.6,0,2.3-0.2c0.1,0,0.3-0.3,0.4-0.4c0.3-0.2,0.6-0.1,0.8-0.2
		c0.2-0.2,0.3-0.6,0.6-0.7c0,0,0.1,0.4,0.1,0.4c0.1,0.1,0.1-0.2,0.2-0.2c-0.4-1.4,0.5-1.5,0.4-2.9c-0.5,0-0.8-0.6-1.3-0.4
		c-0.3,0.1-0.5,0.5-0.8,0.4c-0.2,0-0.3-0.3-0.5-0.4c-0.4-0.2-0.5,0-0.7,0c-0.1,0-0.2-0.2-0.3-0.2c-0.3,0-0.6,0.2-0.9,0.2
		c-0.4,0.1-1.4,0.5-1.7,0.4c-0.2,0-0.5-0.5-0.7-0.4c-0.1,0-0.4,0.4-0.6,0.4c-0.4,0.1-0.9,0.2-1.2,0.2c-0.2,0-0.4-0.3-0.6-0.2
		c-0.2,0-0.3,0.4-0.6,0.4c-0.8,0.3-2.1-0.2-3.2,0c-0.4,0.1-0.8,0.4-1.1,0.4c-0.5,0-1-0.2-1.4-0.2c-0.4,0-0.8,0.6-1.2,0.7
		c-0.4,0-0.8-0.4-1.2-0.4c-0.5-0.1-1-0.1-1.4,0c-0.6,0.1-1,0-1.4,0c-0.4,0-0.8,0.3-1.1,0.2c-0.2,0-0.5-0.5-0.7-0.4
		c-0.2,0-0.5,0.7-0.8,0.7c0,0-0.2-0.4-0.3-0.2c-0.2-0.5,0.1-0.7-0.1-1.1c-0.5-0.2-0.2,1.1-0.5,1.1c-0.3-0.4-0.5,0.1-0.7,0
		c-0.1-0.1,0-0.9-0.3-0.7c-0.4,0.1,0.1,0.7-0.2,0.9c-0.3-0.6-0.8,0.1-1.3-0.2c-0.2-0.1-0.3-0.6-0.6-0.7c-0.1,0-0.2,0.2-0.3,0.2
		c-0.2,0-0.4-0.2-0.6-0.2c-0.3,0-0.4,0.3-0.7,0.2c-0.2,0,0-0.3-0.1-0.4c-0.5-1.2-1.5,0.8-1.8,0.4c-0.1-0.1,0.2-0.3,0.2-0.4
		c-0.3,0-0.6,1.3-0.9,0.2c0.2,0,0.4,0.1,0.4-0.2c-0.6-0.6-0.7,0.7-1.1,0.9c-0.3,0.1-0.7,0-1.1,0c-0.5-0.1-1.1-0.1-1.4-0.2
		c-0.2-0.1-0.3-0.7-0.6-0.9c-0.3-0.2-1.1-0.2-1.2-0.2c-0.2,0-0.2,0.4-0.3,0.4c0,0-0.1-0.5-0.2-0.4c0,0-0.1,0.4-0.2,0.4
		c-0.1,0-0.2-0.4-0.4-0.2c-0.2,0.9-0.7,0.5-1.5,0.4c-1.6-0.1-3.4,0.1-4.4-0.2c0-0.3,0-0.8-0.2-0.7c-0.2,0.3,0,0.5-0.1,0.7
		c-0.1,0.1-0.7,0.2-0.9,0.2c-0.2,0,0-0.3-0.1-0.4c-0.3-0.6-1.2,0-1.3,0c0,0-0.2-0.4-0.3-0.4c-0.6-0.3-0.9,0.4-1.3,0.4
		c-0.2,0-0.4-0.4-0.6-0.4c-0.1,0-0.3,0.2-0.6,0.2c-0.1,0-0.2-0.2-0.3-0.2c-0.1,0-0.2,0.2-0.4,0.2c-0.2,0-0.2-0.2-0.4-0.2
		c-0.2,0-0.2,0.3-0.4,0.2c-0.3-0.1-0.5-0.4-0.8-0.4c-0.2,0-0.4,0.3-0.6,0.2c-0.2-0.1-0.4-0.6-0.6-0.7c-0.2-0.1-0.4,0-0.6,0
		c-0.3-0.1-0.7-0.4-1-0.4c-0.2,0-0.2,0.2-0.4,0.2c-0.5,0-1.1-0.2-1.8-0.2c-0.4,0-0.9-0.2-1.2-0.2c-0.5,0-0.7,0.4-1,0.2
		c-0.3-0.2-0.4-0.8-0.7-0.9c-0.2-0.1-0.5,0.4-0.8,0.4c-0.1,0-0.2-0.2-0.3-0.2c-0.1,0-0.2,0.4-0.4,0.2c-0.2-0.1,0-0.2-0.1-0.4
		c-0.2-0.5-0.8,0-1.1,0c-0.8,0-1.7-0.5-2.3-0.7c-0.2,0-0.4,0.1-0.6,0c-0.2-0.1-0.3-0.4-0.4-0.4c-0.4-0.1-0.9,0-1.1,0
		c-0.1,0-0.1-0.2-0.3-0.2c-0.2,0-0.3,0.3-0.6,0.2c-0.2,0-0.4-0.6-0.7-0.7c-0.2-0.1-0.4,0.5-0.7,0.2c-0.4-0.4-0.6,0.2-0.9,0.2
		c-0.2,0-0.2-0.4-0.4-0.4c-0.2,0-0.4,0.2-0.6,0.2c-0.8,0.1-0.9-0.5-1.3-0.7c-0.1,0-0.3,0.2-0.4,0.2c-0.3,0-0.5-0.3-0.7-0.2
		c-0.2,0.1-0.2,0.4-0.4,0.4c-0.5,0-1.3-0.4-1.9-0.4c-0.5,0-0.3,0.2-0.7-0.2c-0.5-0.6-1.1-0.9-1.5-0.2c-0.3-0.3-0.3-0.8-0.5-0.9
		c-0.6-0.2-1.5,1.9-1.8,0.4c0.2-0.2,0.9,0.4,0.8-0.4c-1.4-0.1-2.5,0.5-3.4-0.2c0-0.5,0.5,0.1,0.3-0.7c-0.4-0.5-1.2,0-1.4-0.7
		c-0.2,1.4-0.8-0.1-1.1,0.4c0.3,0.8-0.6-0.1-0.9,0.4c0-0.5,0.2-0.9,0-1.3c-0.5,0.3-1,0.3-1.3,0.7c-0.1,0.1,0,0.6-0.3,0.7
		c-0.3-0.1-0.3-0.3-0.7-0.4c-0.4-0.1-0.9,0.5-1-0.2c0-0.6,0.4-0.3,0.4-0.9c-0.3-0.3-0.9-0.7-1.3-0.7c-0.2,0-0.2,0.7-0.4,0.9
		c-0.2,0.2-1.2,0.2-1.1,0.2c0,0,0.2-0.6,0.2-0.7c-0.2-0.6-0.3,0.3-0.4,0.2c-0.1,0-0.1-0.8-0.1-0.9c-0.1-0.2-0.3-0.1-0.4-0.2
		c-0.3-0.1-0.5,1.4-0.7,0.9c0-0.3,0.2-0.2,0.2-0.4c-0.5-0.4-0.9-0.8-1.7-0.7c-0.2,0.8,0.5,0,0.3,0.9c-0.5,0.3-0.3-0.6-0.8-0.4
		c-0.2-0.4,0.2-0.9-0.3-0.9c-0.3-0.1-0.1,0.6-0.3,0.7c-0.1-0.7-0.3,0-0.4,0c-0.2,0-0.4-0.3-0.6-0.2c0,0-0.1,0.4-0.2,0.4
		c-0.1,0.1-0.4,0-0.4-0.2c0-0.5,0.5-0.1,0.7-0.2c-0.2-1.4-1.1-0.5-1.7-0.7c-0.3-0.1-0.5-0.6-0.8-0.7c-0.2,0-0.3,0.2-0.4,0.2
		c-0.6,0.1-0.7,0.2-1.1,0.4c-0.1-1.1-1-0.4-1.4-0.4c-0.1,0-0.3-0.4-0.4-0.4c-0.3-0.1-0.5,0.1-0.8,0c-0.1,0-0.3-0.4-0.4-0.4
		c-0.7-0.5-0.9,0.1-1-0.7c-0.1-0.5-0.7,0-0.8,0c-0.2,0-0.2-0.2-0.4-0.2c-0.1,0-0.2,0.3-0.3,0.2c-0.2,0-0.2-0.4-0.4-0.4
		c0,0-0.1,0.3-0.2,0.2c-0.5-0.1-1.2-0.2-1.8-0.4c-0.1,0.1,0.1,1.2-0.4,0.9c-0.3-0.6,0.3-0.4,0.2-1.1c-0.6,0.3-0.9-0.3-1.2-0.4
		c-0.1,0-0.2,0.3-0.3,0.2c-0.1-0.1-0.3-0.4-0.4-0.4c-0.6-0.2-1.4-0.5-1.9-0.4c-0.3,0-0.7,0.6-1,0.7c-0.7,0.2-1.3-0.4-2.1-0.2
		c0-0.4,0-0.7,0-1.1c-0.4-0.2-0.4,0.5-0.5,0.7c-0.1-1.4-0.6-0.6-1.1-0.7c0,0-0.2-0.2-0.3-0.2c-0.3-0.2-0.7-0.2-1,0
		c-0.3-0.5,0.3-0.6,0-1.1c-0.4,0.2-0.9-0.1-1.3,0c-0.2,0-0.4,0.3-0.7,0.2c-0.3-0.1-0.7-0.8-1-0.9c-0.2-0.1-0.5,0.2-0.8,0.2
		c-0.6-0.1-1.3-0.7-2.1-0.9c-0.7-0.1-1.4,0-2-0.2c-0.5-0.2-1-0.8-1.5-0.9c-0.2,0-0.4,0.4-0.6,0.4c-1,0.2-1.5-0.9-2.2-1.1
		c-0.2,0-0.4,0.1-0.6,0c-0.1,0-0.3-0.4-0.3-0.4c-0.2,0-0.4,0.5-0.7,0.4c-0.2-0.3-0.3-0.7-0.6-0.9c-0.2-0.1-0.5,0.2-0.7,0.2
		c-0.4,0-0.9-0.6-1.1-0.7c-0.1,0-0.1,0.2-0.2,0.2c-0.2,0-0.7-0.1-1-0.2c-0.3-0.1-0.7-0.6-1-0.7c-0.3-0.1-0.6,0.1-0.8,0
		c-0.2-0.1-0.3-0.4-0.4-0.4c-0.2,0-0.4,0.3-0.4,0.2c-0.1,0-0.3-0.3-0.4-0.4c0,0-0.2-0.1-0.2-0.2c0,0-0.2-0.5-0.1-0.4
		c-0.1-0.1-0.3,0.2-0.5,0.2c-0.2,0-0.4-0.3-0.6-0.2c-0.2,0.1-0.4,0.5-0.7,0.4c-0.5-0.1-0.8-1.1-1.1-1.3c-0.6-0.4-1.3,0-2.2,0
		c-0.8,0-1.7-0.5-2.4-0.4c-0.5,0-1,0.4-1.4,0.4c-1.4,0-3.4-1.5-4.1,0.2c0.1-0.2,0,0.8,0,0.9c-0.1,0.6-0.2,0.5-0.2,0.9
		c0,0.2,0.1,0.6,0.1,1.1c0,1.4-0.2,0.8,0.2,1.8c0.4,1,0.3,0.7,1,1.3c0.3,0.3,0.5,0.7,0.5,0.4c0.1-0.1,0.1,0.2,0.1,0.2
		c0.2,0,0.4-0.1,0.7,0c0.2,0.1,0.3,0.4,0.4,0.4c0,0,0.3-0.3,0.4-0.2c0.3,0.1,0.5,0.5,0.8,0.7c0.2,0.1,0.5-0.1,0.7,0
		c0.5,0.2,1,0.9,1.4,0.9c0.2,0,0.2-0.3,0.4-0.2c0.3,0.1,0.6,0.7,1,0.9c0.3,0.1,0.6-0.1,1,0c0.2,0.1,0.4,0.4,0.5,0.4
		c0.3,0,0.5-0.3,0.7-0.2c0.1,0.1,0.3,0.7,0.4,0.9c0.4-0.2,0.8-0.3,1.1-0.2c0.1,0,0.3,0.4,0.4,0.4c0.2,0.1,0.2-0.3,0.4-0.2
		c0.3,0.1,0.2,0.6,0.4,0.7c0.4-0.9,0.6-0.2,1,0c0.1,0.1,0.5-0.4,0.4,0.2c-0.3-0.1-0.6-0.4-0.6,0.4c0.6,0.1,0.8-0.4,1.1-0.9
		c0.1,0.7,0.5,0.1,0.8,0.4c0.2,0.3,0.1,0.8,0.4,0.9c0.5,0.2,1.1-0.9,1.4,0c0,0.5-0.5-0.1-0.3,0.7c0.3,0,0.4-0.6,0.7-0.7
		c0.2,0,0.4,0.4,0.7,0.4c0.2,0.1,0.4-0.2,0.6-0.2c0,0,0.3,0.4,0.3,0.4c0.2,0.1,0.4-0.1,0.4,0.2c0,0.5-0.4,0.2-0.4,0.7
		c0.6-0.2,1.4,0.3,1.5,0c0.1-0.2,0.1-0.1,0.2-0.2c0.7-0.5,0.7,0.4,1.3,0.4c0.2,0,0.4-0.3,0.5-0.2c0.3,0.1,0.5,1.3,0.9,0.7
		c-0.1,0-0.1-0.4,0-0.4c0.2,0.2,0.4,0.9,0.7,1.1c0.4,0.2,0.8-0.3,1.2-0.2c0.3,0.1,0.3,0.8,0.7,0.9c0.1,0,0.4-0.2,0.5-0.2
		c0.1,0,0.3-0.6,0.4,0c0,0.6-0.4,0.2-0.4,0.7c0.7,0.3,1.6,0.2,2,0.7c0.2-0.3-0.1-0.5,0.1-0.7c0.3-0.2,1.2,0.5,1.3,0.4
		c0.1,0,0.1-0.3,0.2-0.2c0.2,0.1,0.2,0.4,0.4,0.4c0.4,0.1,0.9-0.2,1.3,0c0.2,0.1,0.1,0.4,0.3,0.4c0.5,0.1,1.1-0.4,1.5,0.4
		c0,0.3-0.2,0.2-0.2,0.4c0.5,0.6,1.2,1.1,1.9,0.7c0.1-0.1,0.2-0.6,0.3-0.7c0.2,0,0.5,0.2,0.7,0.2c0.3,0,0.5-0.2,0.7,0.2
		c0,0.9-0.5,0.7-0.5,1.3c0.7,0.1,0.6-0.7,0.9-1.1c0.5-0.5,0.8,0.7,1.1,0.9c0.3,0.2,0.7-0.2,1,0.4c-0.4,0.5-1.3,0.1-1.9,0.2
		c0-0.3,0-0.8-0.2-0.7c-0.2-0.4-0.2,0.6-0.3,0.7c-0.3,0.2-1.1-0.7-1.9-0.7c-0.3,0-0.4,0.3-0.7,0.2c-0.2,0-0.4-0.4-0.5-0.4
		c-0.3-0.1-0.7-0.3-0.9-0.2c-0.2,0.1-0.3,0.8-0.6,0.7c-0.3,0.1-0.1-0.9-0.4-0.7c-0.4,1.1-0.9-0.3-1.5,0c0-0.3,0.1-0.3,0.1-0.7
		c-0.5,0.3-1,0.6-1.4,0.7c-0.4,0-0.3-0.4-0.5-0.4c0,0-0.2,0.3-0.4,0.2c-0.2-0.1-0.3-0.6-0.5-0.7c0,0-0.5,0-0.4,0
		c-0.4,0.1-0.8,0.9-1.2,0.9c-0.1,0-0.3-0.4-0.4-0.4c-0.6-0.3-1-0.1-1.4,0c-0.1-0.4,0.3-0.9-0.1-0.9c-0.5-0.2-0.2,0.8-0.3,0.9
		c-0.4-0.8-0.9-0.2-1.3-0.2c-0.2,0-0.2-0.4-0.4-0.4c0,0-0.1,0.2-0.2,0.2c-0.2,0-0.2-0.2-0.3-0.2c-0.3,0-0.5,0.3-0.8,0.2
		c-0.1,0-0.3-0.4-0.3-0.4c-0.5,0-0.9,0.6-1.4,0.2c-0.2-0.1-0.3-0.6-0.5-0.7c-0.6-0.2-1.2,0.1-1.9,0.2c-0.1,0-0.1-0.2-0.2-0.2
		c-0.1,0-0.2,0.2-0.3,0.2c-0.7-0.1-1.8-0.2-2.4-0.2c0,0-0.2,0.3-0.4,0.2c-0.2-0.1-0.1-0.4-0.3-0.4c-0.3,0-0.5,0.4-0.8,0.4
		c-0.1,0-0.3-0.4-0.6-0.4c-0.5-0.2-1.2,0.2-1.5,0c-0.2-0.1-0.3-0.4-0.4-0.4c-0.2,0-0.4,0.4-0.7,0.4c-0.4,0.1-0.4-0.4-0.5-0.4
		c-0.2-0.1-0.4,0.2-0.6,0.2c0,0-0.3-0.2-0.4-0.2c-0.5-0.2-0.6-0.1-0.5-0.9c-0.6,0.7-1.4,1-2.2,0.9c-0.1,0-0.1-0.1-0.1-0.2
		c-0.2-0.5-0.8-0.1-1.1-0.2c-0.4-0.2-0.7-1.1-1.1-0.9c0,0.4,0.2,0.6,0,0.7c-0.4,0.3-1-0.3-1.4-0.2c-0.2,0-0.5,0.6-0.7,0.7
		c-0.1,0-0.6-0.1-0.9-0.2c-0.5-0.2-1.2,0-1.8,0c-0.2,0-0.4-0.4-0.6-0.4c-0.2,0-0.4,0.2-0.5,0.2c-0.2,0-0.4-0.2-0.6-0.2
		c-0.2,0-0.2,0.2-0.4,0.2c-0.2,0-0.5-0.4-0.7-0.4c-0.1,0-0.2,0.2-0.4,0.2c-0.2,0-0.5-0.2-0.7-0.2c-0.3,0-0.6,0.2-0.9,0.2
		c-0.3,0-0.6-0.4-1-0.4c-0.5,0-1,0.4-1.5,0.2c-0.1,0-0.2-0.2-0.3-0.2c-0.1,0-0.4,0.3-0.6,0.2c-0.1,0-0.2-0.4-0.3-0.4
		c-0.3,0-0.7,0.7-1,0.7c-0.3-0.9-0.4-0.4-0.9-0.4c-0.6,0-1,0-1.4,0c-0.7,0-1.5-0.7-2.2-0.7c-0.5,0-0.7,0-1.1,0
		c-0.4-0.1-0.8,0.2-1.3,0.2c-1.5,0-2.9-0.4-4.4,0c0.1,0.8,0.8,0.3,0.8,1.3c-0.3,0.2-1,0.5-1.2,0c-0.3-0.6,0.1-0.8,0.1-1.3
		c-0.5-0.5-1.1-0.1-1.7-0.2c-0.1,0-0.3-0.4-0.4-0.4c0,0-0.1,0.4-0.1,0.4c-0.5,0.5-1.1,0-1.4,0c-0.5,0.1-1.3,0.2-1.9,0
		c-0.2-0.1-0.3-0.5-0.7-0.7c0,0-0.3,0.3-0.4,0.2c-0.3-0.1-0.4-0.5-0.6-0.4c-0.1,0-0.6,0.4-0.5,0.9c0.2,0.7,0.7-0.4,0.8,0.4
		c-0.6,0.2-1.1,0-1.5,0c-0.3,0-0.5,0.3-0.7,0.2c-0.2-0.1-0.4-0.6-0.6-0.7c-0.5-0.3-1.2-0.1-1.5,0c-0.7,0.2-1.9-0.4-2.2,0.2
		c-0.1,0.3-0.3,0.8-0.4,0.9c-0.5,0.5-0.7-0.1-1.1-0.2c-0.3-0.1-0.5,0.3-0.8,0.2c0,0-0.1-0.9-0.2-0.2c0.1,0,0.2,0.2,0.2,0.4
		c-0.5-0.1-1-0.5-0.6-1.1c-0.4-0.2-0.5,1.2-0.8,1.1c0,0-0.6-1-0.4-1.3c0.4-0.2,0.3,0.3,0.5,0.4c-0.1-1.2-0.9-0.9-1.4-0.7
		c-0.2,0.1-0.4,0.5-0.6,0.7c-0.3,0.2-0.4-0.1-0.5,0.2c-0.1,0.9,0.7,0,0.7,0.9c-0.7-0.5-1.8,0.7-2.3-0.4c0.2,0,0.4-0.1,0.4-0.4
		c-0.6,0.3-1.2-0.6-1.4,0.2c0.2,0.6,0.7-0.5,0.8,0.4c-0.2,0.2-0.3,0.3-0.6,0.4c-0.2,0.1-0.6,0.1-0.5,0.7c0.4,0.6,0.8-0.2,1.1-0.4
		c0.3,0.9,0.9,0.5,1.3,0.4c0.4-0.1,0.8,0,1.1,0c0.2,0,0.2-0.4,0.4-0.4c0.3-0.1,0.3,0.4,0.5,0.4c0.5,0,1-0.2,1.5-0.2
		c0.9,0,1.5,0.2,2.4,0.2c0.6,0,1.3,0.2,1.8,0c0.2-0.1,0.4-0.4,0.6-0.4c0.2,0,0.4,0.4,0.7,0.4c0.3,0.1,0.8,0.1,1.1,0
		c0.2-0.1,0.3-0.4,0.6-0.4c0.2,0,0.4,0.4,0.7,0.4c0.7,0.2,1.5-0.2,1.9,0.2c0.3,0.4,0.3,0.3,0.5,0.2c0.2,0,0.2,0.2,0.4,0.2
		c0.4,0,0.9-0.2,1.3-0.2c0.2,0,0.4,0.2,0.5,0.2c0.1,0,0.3-0.4,0.4-0.4c0.2,0,0.3,0.2,0.6,0.2c0.5-0.1,1.2-0.5,1.4-0.4
		c0.2,0,0.4,0.5,0.6,0.7c0.4,0.2,0.7,0,1,0.2c-0.3,0.5,0,0.6,0.2,0.7c0.6,0.1,0.6-0.7,1-0.9c0.2-0.1,0.4,0.2,0.7,0.2
		c0.1,0,0.2-0.4,0.4-0.4c0.1,0,0.5,0.2,0.8,0.2c0.3,0,0.8-0.1,1,0c0.2,0.1,0.3,0.4,0.6,0.4c0.4,0,0.8-0.3,1.2-0.4
		c0.3-0.1,0.7-0.3,0.9-0.2c0,0,0.1,0.4,0.1,0.4c0.3,0.7,1.2,0,1.8,0c0.7,0,3,0.1,3.3,0.4c0.4,0.5,0.6-0.1,0.9-0.2
		c0.7-0.2,1.7,0.3,2.6,0.4c0.5,0.1,1.1,0.2,1.5,0.2c0.4,0,0.8-0.3,1.2-0.2c0.3,0,0.6,0.4,0.9,0.4c0.5,0.1,1-0.2,1.3,0
		c0.3,0.1,0.4,0.8,0.7,0.7c0.4-1.1,0.9-0.5,1.5-0.4c0.2,0,0.3-0.2,0.5-0.2c0.4,0,0.8,0.3,1.1,0.2c0.2,0,0.3-0.3,0.4-0.2
		c0.1,0,0.4,0.5,0.4,0.4c0,0,0-0.3,0.1-0.2c0.2,0.1,0.4,0.8,0.7,0.4c0.2-0.2-0.1-1.3,0.3-1.1c0.1,0,0.2,0.3,0.2,0.4
		c0.1,0.4,0,0.2,0.2,0.4c0.4,0.4,0.9-0.2,1.4-0.2c0.2,0,0.4,0.4,0.7,0.4c0.2,0,0.3-0.2,0.6-0.2c0.5,0,1.1,0.5,1.7,0.4
		c0.3,0,0.6-0.3,0.9-0.2c0.2,0,0.4,0.4,0.7,0.4c0.8,0.2,1.9,0.3,2.4,0c0.2-0.1,0.1-0.5,0.3-0.4c0.3-0.1,0.1,0.9,0.4,0.7
		c0.3,0.1,0.3-0.5,0.7-0.4c0.5,1.1,1,0.6,1.5,0.7c0.8,0.1,1.9,0,2.6,0c0.2,0,0.4,0.3,0.7,0.2c0.2,0,0.4-0.3,0.5-0.2
		c0.3,0.1,0.6,0.6,1,0.7c0.6,0.2,1.2-0.1,1.9,0c0.3,0.1,0.6,0.4,0.9,0.4c0.3,0,0.6-0.2,1-0.2c0.3,0,0.7,0.2,0.8,0.2
		c0.2,0,0.4-0.5,0.6-0.4c0.6,0.1,1,0.7,1.4,0.7c0.1,0,0.4-0.5,0.5-0.4c0.3,0,0.6,0.5,0.9,0.7c0.6,0.3,1.4,0.4,2.1,0.4
		c0.1,0,0.4-0.3,0.6-0.2c0.2,0,0.3,0.4,0.5,0.4c0.6,0,1.1-0.4,1.8-0.2c0.2,0,0.4,0.2,0.6,0.2c0.3,0,0.6-0.4,0.9-0.4
		c0.3,0,0.7,0.1,0.9,0.2c0.2,0.1,0.6,0.6,0.7,1.1c-0.6,0-1.3-0.1-1.8,0c-1.7,0.3-3.8-0.3-5.3,0c-0.1,0-0.3,0.4-0.4,0.4
		c-0.1,0-0.1-0.2-0.1-0.2c-0.1,0-0.1,0.2-0.1,0.2c-0.6,0.1-0.8,0.3-1,0.9c-0.3,0.4-0.8-0.1-1,0.2c0,0.6,0,1.1,0.1,1.6
		c-0.1,0-0.1,0-0.2,0c-0.2,0-0.4-0.2-0.7-0.2c-0.9-0.1-2.1-0.3-2.9-0.2c-0.5,0-1.1,0.3-1.5,0.3c-1.1,0.1-2-0.2-3.2-0.1
		c0-0.2,0-0.4,0-0.6c-0.6-0.1-0.6,0.2-0.9,0.3c-0.2-0.7-0.9-0.3-1.7-0.3c0,0-0.4-0.1-0.5-0.1c-0.5-0.1-1.1-0.1-1.5,0
		c-0.5-0.3,0.5-0.3,0-0.6c-0.7,0.1-1.3,0-2.1,0c-0.3,0-0.6,0.2-1,0.1c-0.5,0-1-0.4-1.5-0.4c-0.3,0-0.8,0.1-1.2,0.1
		c-0.9,0-2-0.4-3.2-0.4c-1-0.1-2.1,0-3.1-0.1c-0.8-0.1-1.6-0.4-2.4-0.4c-0.1,0-0.3,0-0.4,0.1c-0.1-0.2-0.3-0.3-0.4,0.1c0,0,0,0,0,0
		c-0.1,0-0.2,0-0.3,0c0-0.1,0-0.3,0.1-0.5c-1.4,0.5-2.8-0.3-4.4-0.3c0,0-0.1,0-0.1,0c-0.3,0-0.7,0.2-1,0.2c0,0,0,0,0,0
		c0,0,0-0.1,0-0.1c-0.1,0-0.2,0-0.3,0c-0.2-0.1-0.3-0.2-0.6-0.3c-0.1,0-0.2,0-0.4,0c-0.2-0.2-0.4-0.1-0.7,0.1c0,0,0,0,0,0
		c-0.6,0-1.3-0.3-1.7-0.3c-0.2,0-0.2,0.1-0.3,0.1c-0.1,0-0.4,0-0.7,0c0,0,0,0,0,0c-0.5-0.3-0.9-0.3-1.3-0.2c0,0-0.1,0-0.1,0
		c-0.3-0.1-0.6-0.2-1-0.2c-0.4,0-0.9,0-1.2,0c-0.3,0-0.5-0.2-0.7-0.2c-0.3,0-0.6,0.1-0.7,0.1c-0.1,0-0.5-0.2-0.7-0.2
		c0,0-0.3-0.1-0.3-0.1c0,0-0.3-0.2-0.2-0.2c-0.2,0-0.4,0.1-0.9,0.1c-0.4,0-0.6-0.1-0.9-0.1c-0.4,0-0.7,0.3-1,0.2
		c-0.7-0.1-1.2-0.6-1.7-0.7c-0.9-0.2-2.1,0-3.4,0c-1.2,0-2.6-0.2-3.8-0.2c-0.7,0-1.6,0.2-2.2,0.2c-2.2,0-5.3-0.7-6.3,0.1
		c0.1-0.1,0,0.4,0,0.4c-0.2,0.3-0.3,0.3-0.3,0.4c0,0.1,0.1,0.3,0.2,0.5c-0.6,0.1-1.3,0.3-1.9,0.4c-0.5,0.1-1.1-0.3-1.7-0.2
		c-0.4,0.1-0.8,0.5-1.2,0.4c-0.2,0-0.4-0.3-0.7-0.2c-0.2,0-0.3,0.4-0.6,0.4c-1,0.4-2.3-0.2-3.4,0c-0.2,0-0.4,0.4-0.6,0.4
		c-0.3,0.1-0.9-0.4-0.9,0.7c0.6,0.3,1.1-0.1,1.9-0.2c1-0.1,2.2,0.1,3-0.2c0.2-0.1,0.3-0.4,0.4-0.4c0.1,0,0.3,0.4,0.4,0.4
		c0.3,0.1,0.8-0.2,0.9-0.2c0.1,0,0.2,0.5,0.3,0.4c0,0,0.1-0.4,0.1-0.4c0.1-0.1,0.2,0,0.3,0c0.6-0.2,1.4-0.3,1.5,0.7
		c-0.4,0.3-1.1,0-1.4,0c-0.4,0-0.7,0.4-1.1,0.4c-0.1,0-0.1-0.2-0.2-0.2c-0.7,0-1.9,0.1-2.6,0.2c-0.4,0.1-0.8-0.1-1.2,0
		c-0.4,0.1-0.7,0.4-1.1,0.4c-0.3,0.1-0.7-0.1-1,0c-0.2,0.1-0.4,0.3-0.5,0.4c-0.2,0.1-0.7-0.2-0.7,0.7c0.4-0.1,0.9,0.2,1.3,0
		c0.2-0.1,0.3-0.4,0.5-0.4c0.1,0,0.2,0.2,0.4,0.2c0.4,0,0.8-0.4,1.3-0.4c1.5-0.2,3.2,0.4,4.3,0c0.2-0.1,0.3-0.5,0.4-0.4
		c0.2,0,0.5,0.6,0.8,0.7c0.3,0.1,0.5-0.2,0.9-0.2c1-0.2,2.5,0.1,3.9,0.2c0.2,0,0.2-0.2,0.4-0.2c0.6,0.1,1.1,0.4,1.7,0.2
		c0.5-0.1,0.7,0,1.2,0c0.2,0,0.4-0.3,0.5-0.2c0.2,0.1,0.3,0.4,0.4,0.4c0.2,0,0.2-0.4,0.4-0.4c0,0,0.2,0.3,0.3,0.2
		c0.1,0,0.2-0.3,0.3-0.2c0.2,0,0.5,0.6,0.8,0.7c0.4,0.1,0.9-0.1,1.4,0c0.2,0,0.4,0.4,0.6,0.4c0.3,0.1,0.7,0,0.8,0
		c0.1-0.1,0.4,0.4,0.7,0.2c0.2-0.1,0.3-0.6,0.4-0.7c0.2-0.1,0.3,0.2,0.5,0.2c0.3,0,0.6-0.4,1-0.4c0.5-0.1,1.1,0.4,1.7,0.4
		c0.2,0,0.5-0.3,0.7-0.2c0.2,0,0.4,0.4,0.7,0.4c0.8,0.2,1.7-0.2,2.4,0c0.2,0,0.4,0.4,0.5,0.4c0.3,0.1,0.6,0,1,0
		c0.2,0,0.3,0.2,0.6,0.2c0.2,0,0.4-0.3,0.5-0.2c0.4,0.1,1,0.5,1.2,0.7c0.6,0.4,0.6-0.3,1.1-0.4c0.1,0,0.4,0.2,0.7,0.2
		c0.2,0,0.6,0.1,0.8,0c0.2,0,0.3-0.4,0.4-0.4c0.7-0.3,0.9,0.6,1.3,0.7c0.2,0.1,0.5-0.4,0.8-0.4c0.2,0,0.5,0.4,0.7,0.4
		c0.2,0,0.4-0.2,0.5-0.2c0.2,0,0.2,0.3,0.4,0.2c0.4-0.1,1-0.1,1.3,0c0.1,0,0.3,0.4,0.4,0.4c0.2,0.1,0.4-0.1,0.5,0
		c0.2,0.1,0.4,0.4,0.6,0.4c-0.1,0,0.3-0.2,0.3-0.2c0.2-0.1,0.7-0.2,1,0c0,0,0,0.4,0,0.4c0.2,0.4,1.1-0.2,1-0.2
		c0.2,0,0.4,0.5,0.5,0.4c0,0,0.3-0.4,0.3-0.4c0.1,0,0.1,0.2,0.2,0.2c0,0,0.1-0.2,0.2-0.2c0.8-0.1,1.3,0.5,1.8,0.4
		c0.1,0,0.4-0.5,0.6-0.4c0.1,0,0.1,0.4,0.3,0.4c0.2,0,0.3-0.3,0.4-0.2c0.1,0,0.3,0.4,0.4,0.4c0.6,0.4,0.9-0.2,1.3-0.2
		c0.1,0,0.3,0.5,0.6,0.4c0.5-0.1,0.3-0.7,0.5,0c0.2,0.6,1.1,0,1.8,0.2c0.3,0.1,0.5,0.3,0.7,0.5c0,0,0,0,0,0
		c-0.3-0.1-0.5-0.3-0.9-0.3c0,0-0.7,0-0.7,0c-0.6,0-1.3,0.4-1.9,0.4c-0.1,0-0.4-0.2-0.7-0.2c-0.9-0.2-1.5-0.1-2.2,0
		c-0.1-0.2,0.5-0.5-0.2-0.4c-0.8-0.1-0.2,0.4-0.5,0.4c-0.6-0.4-1.3-0.1-2.1-0.1c-0.3,0-0.3-0.2-0.7-0.2c0,0-0.2,0.1-0.3,0.1
		c-0.2,0-0.4-0.1-0.5-0.1c-0.4,0-0.8,0.1-1.2,0.1c-0.2,0-0.4-0.2-0.5-0.2c-0.9,0-1.4,0.3-2.2,0.1c-0.3-0.1-0.5-0.3-0.9-0.3
		c-0.9-0.1-1.8,0.1-2.9,0.1c-0.2,0-0.2-0.1-0.3-0.1c-0.2,0-0.2,0.1-0.5,0.1c-1.1,0-2.9-0.1-3.8-0.1c-0.1,0-0.4,0.2-0.7,0.1
		c-0.3,0-0.1-0.2-0.5-0.2c-0.4,0-0.8,0.2-1.2,0.2c-0.2,0-0.5-0.2-0.9-0.2c-0.8-0.1-1.8,0.1-2.4,0c-0.3,0-0.4-0.2-0.7-0.2
		c-0.3,0-0.7,0.2-1,0.2c-0.7,0-0.7-0.2-0.9-0.2c-0.2,0-0.6,0.1-0.9,0.1c0,0-0.5-0.1-0.7-0.1c-0.9-0.1-0.9-0.1-0.9-0.4
		c-1,0.3-2.1,0.5-3.4,0.4c-0.2,0-0.1,0-0.2-0.1c-0.3-0.3-1.2,0-1.7-0.1c-0.6-0.1-1-0.6-1.7-0.4c-0.1,0.2,0.3,0.3,0,0.3
		c-0.7,0.1-1.6-0.1-2.2-0.1c-0.3,0-0.7,0.3-1,0.3c-0.1,0-1-0.1-1.4-0.1c-0.8-0.1-1.9,0-2.7,0c-0.3,0-0.6-0.2-0.9-0.2
		c-0.3,0-0.6,0.1-0.9,0.1c-0.2,0-0.6-0.1-0.9-0.1c-0.3,0-0.4,0.1-0.7,0.1c-0.3,0-0.7-0.2-1-0.2c-0.2,0-0.3,0.1-0.7,0.1
		c-0.4,0-0.7-0.1-1-0.1c-0.5,0-0.9,0.1-1.4,0.1c-0.5,0-1-0.2-1.5-0.2c-0.8,0-1.6,0.2-2.4,0.1c-0.2,0-0.2-0.1-0.5-0.1
		c-0.2,0-0.6,0.1-0.9,0.1c-0.1,0-0.3-0.2-0.5-0.2c-0.5,0-1.1,0.3-1.5,0.3c-0.4-0.4-0.7-0.2-1.4-0.2c-0.9,0-1.6,0-2.2,0
		c-1.1,0-2.3-0.3-3.4-0.3c-0.8,0-1.1,0-1.7,0c-0.7,0-1.3,0.1-2.1,0.1c-2.3,0-4.5-0.2-6.8,0c0.1,0.4,1.2,0.2,1.2,0.7
		c-0.4,0.1-1.5,0.3-1.9,0c-0.5-0.3,0.1-0.4,0.2-0.7c-0.8-0.2-1.8,0-2.6-0.1c-0.2,0-0.5-0.2-0.7-0.2c0,0-0.1,0.2-0.2,0.2
		c-0.7,0.2-1.7,0-2.2,0c-0.8,0-2,0.1-2.9,0c-0.3,0-0.5-0.3-1-0.3c0,0-0.4,0.1-0.7,0.1c-0.4,0-0.6-0.2-0.9-0.2
		c-0.2,0-0.9,0.2-0.9,0.4c0.4,0.3,1.1-0.2,1.2,0.2c-0.9,0.1-1.8,0-2.4,0c-0.4,0-0.8,0.1-1,0.1c-0.3,0-0.6-0.3-0.9-0.3
		c-0.8-0.1-1.9,0-2.4,0c-1.1,0.1-2.9-0.2-3.4,0.1c-0.2,0.1-0.5,0.4-0.7,0.4c-0.8,0.3-1.1-0.1-1.7-0.1c-0.4,0-0.8,0.1-1.2,0.1
		c0,0-0.2-0.4-0.3-0.1c0.2,0,0.3,0.1,0.3,0.2c-0.7,0-1.5-0.2-0.9-0.6c-0.6-0.1-0.8,0.6-1.2,0.6c0,0-1-0.5-0.7-0.7
		c0.5-0.1,0.5,0.2,0.9,0.2c-0.1-0.6-1.4-0.4-2.2-0.3c-0.3,0-0.6,0.3-0.9,0.3c-0.4,0.1-0.6-0.1-0.9,0.1c-0.2,0.5,1.1,0,1,0.4
		c-1.1-0.2-2.8,0.3-3.6-0.2c0.3,0,0.6-0.1,0.7-0.2c-1,0.1-1.8-0.3-2.2,0.1c0.4,0.3,1.1-0.3,1.2,0.2c-0.3,0.1-0.5,0.1-0.9,0.2
		c-0.3,0.1-0.9,0-0.9,0.3c0.6,0.3,1.3-0.1,1.7-0.2c0.4,0.4,1.3,0.3,2.1,0.2c0.6,0,1.2,0,1.7,0c0.4,0,0.3-0.2,0.7-0.2
		c0.5,0,0.4,0.2,0.9,0.2c0.8,0,1.5-0.1,2.4-0.1c1.4,0,2.4,0.1,3.8,0.1c0.9,0,2,0.1,2.7,0c0.3,0,0.6-0.2,0.9-0.2c0.4,0,0.7,0.2,1,0.2
		c0.5,0,1.2,0.1,1.7,0c0.4-0.1,0.5-0.2,0.9-0.2c0.3,0,0.6,0.2,1,0.2c1.1,0.1,2.3-0.1,2.9,0.1c0.5,0.2,0.4,0.1,0.9,0.1
		c0.3,0,0.4,0.1,0.7,0.1c0.6,0,1.4-0.1,2.1-0.1c0.3,0,0.6,0.1,0.9,0.1c0.2,0,0.4-0.2,0.7-0.2c0.3,0,0.5,0.1,0.9,0.1
		c0.8,0,1.8-0.2,2.2-0.2c0.3,0,0.6,0.3,0.9,0.3c0.6,0.1,1.1,0,1.5,0.1c-0.4,0.3,0.1,0.3,0.3,0.3c0.9,0.1,0.9-0.3,1.5-0.4
		c0.2,0,0.7,0.1,1,0.1c0.2,0,0.4-0.2,0.7-0.2c0.2,0,0.8,0.1,1.2,0.1c0.5,0,1.2,0,1.5,0c0.3,0,0.5,0.2,0.9,0.2c0.6,0,1.3-0.2,1.9-0.2
		c0.4,0,1.1-0.1,1.4-0.1c0,0,0.2,0.2,0.2,0.2c0.5,0.4,1.8,0,2.7,0c1.1,0,4.7,0,5.1,0.2c0.6,0.2,0.9-0.1,1.4-0.1
		c1.1-0.1,2.6,0.1,4.1,0.2c0.8,0,1.7,0.1,2.4,0.1c0.6,0,1.3-0.1,1.9-0.1c0.5,0,0.9,0.2,1.4,0.2c0.8,0.1,1.6-0.1,2,0
		c0.4,0.1,0.6,0.4,1,0.3c0.5-0.5,1.4-0.3,2.4-0.2c0.3,0,0.5-0.1,0.9-0.1c0.6,0,1.2,0.2,1.7,0.1c0.3,0,0.4-0.1,0.7-0.1
		c0.2,0,0.6,0.2,0.7,0.2c0.1,0,0-0.1,0.2-0.1c0.4,0.1,0.6,0.4,1,0.2c0.3-0.1-0.1-0.7,0.5-0.6c0.2,0,0.2,0.1,0.3,0.2
		c0.2,0.2,0,0.1,0.3,0.2c0.6,0.2,1.3-0.1,2.2-0.1c0.3,0,0.7,0.2,1,0.2c0.3,0,0.5-0.1,0.9-0.1c0.7,0,1.7,0.2,2.6,0.2
		c0.5,0,0.9-0.1,1.4-0.1c0.4,0,0.7,0.2,1,0.2c1.2,0.1,3,0.1,3.8,0c0.3,0,0.1-0.3,0.5-0.2c0.4,0,0.1,0.4,0.7,0.3c0.5,0,0.5-0.2,1-0.2
		c0.7,0.6,1.6,0.3,2.4,0.3c1.2,0,3,0,4.1,0c0.3,0,0.7,0.1,1,0.1c0.3,0,0.6-0.1,0.9-0.1c0.5,0,1,0.3,1.5,0.3c0.9,0.1,1.9-0.1,2.9,0
		c0.5,0,0.9,0.2,1.4,0.2c0.5,0,1-0.1,1.5-0.1c0.5,0,1.1,0.1,1.2,0.1c0.3,0,0.6-0.2,0.9-0.2c0.9,0,1.6,0.4,2.2,0.3
		c0.2,0,0.6-0.2,0.9-0.2c0.4,0,0.9,0.3,1.4,0.3c0.9,0.1,2.2,0.2,3.2,0.2c0.2,0,0.6-0.1,0.9-0.1c0.3,0,0.5,0.2,0.9,0.2
		c0.9,0,1.7-0.2,2.7-0.1c0.3,0,0.6,0.1,0.9,0.1c0.4,0,0.9-0.2,1.4-0.2c0.4,0,1.1,0.1,1.4,0.1c0.3,0.1,0.9,0.3,1,0.6c-1,0-2,0-2.7,0
		c-2.6,0.1-6-0.2-8.2,0c-0.2,0-0.5,0.2-0.7,0.2c-0.2,0-0.1-0.1-0.2-0.1c-0.2,0-0.2,0.1-0.2,0.1c-0.9,0-1.3,0.1-1.5,0.4
		c-0.5,0.2-1.2,0-1.5,0.1c0.1,0.5,0,0.8,0.3,1.3c-1,0-1.5-0.4-1.9,0.2c-0.2-0.2-0.4,0-0.5,0c-0.4-0.1-0.3-0.3-0.7-0.3
		c-0.3-0.1-0.4,0.1-0.7,0.1c-0.4,0-0.8-0.4-1.3-0.3c0,0-0.1,0-0.1,0c-0.1,0-0.2,0.2-0.2,0.3c-0.2,0-0.3-0.1-0.4-0.1
		c-0.3-0.4-1-0.5-1.3-0.5c-0.1,0-0.2,0.3-0.4,0.4c-0.1,0-0.2,0.1-0.4,0c-0.1,0-0.1,0-0.2,0c0,0-0.1,0-0.1,0
		c-0.6-0.1-0.9-0.4-1.4-0.4c-0.1,0-0.1,0-0.2,0c0,0-0.1-0.1-0.1-0.1c-0.1,0.1-0.2,0.1-0.2,0.2c-0.2,0.1-0.4,0.2-0.7,0.2
		c-0.3,0-0.6-0.2-0.9-0.2c-0.2,0.2-0.4,0.3-0.6,0.2c-0.1-0.1-0.3-0.2-0.3-0.3c0,0,0,0.1-0.1,0.1c-0.4-0.1-0.8,0-1.2,0
		c-0.4,0-2.2-0.2-2.4-0.2c-0.3,0-0.5,0.2-0.7,0.2c-0.1,0-0.2,0-0.3-0.1c-0.1-0.1-0.2-0.1-0.4-0.1c-0.1,0-0.2,0-0.3,0.1
		c0,0-0.1,0-0.1,0c-0.1,0-0.1,0-0.2,0c-0.4,0-0.8-0.2-1.2-0.2c-0.3,0-0.6,0.2-0.9,0.2c-0.8,0.1-1.4,0-2.1-0.3
		c-0.5,0.1-1.2,0.5-1.4,0.1c0-0.1,0.3-0.1,0.3-0.2c-0.7,0-1.5-0.1-1.5,0.3c-0.1-0.2-0.4-0.3-0.7-0.3c-0.2,0-1-0.1-1.4-0.1
		c-0.3,0-0.5,0.2-0.9,0.2c-0.4,0-0.8-0.2-1.4-0.2c-1-0.1-2.2,0.1-3.1,0c-0.3,0-0.6-0.2-0.9-0.2c-0.2,0-0.2,0.1-0.5,0.1
		c-0.2,0-0.2-0.1-0.5-0.1c-0.2,0-0.5,0.2-0.7,0.2c-0.3,0-0.6-0.4-0.9-0.2c-0.2,0.5,1,0,0.7,0.6c-1.3,0.1-1.8-0.4-2.7,0
		c-0.4-0.1,0.2-0.4-0.2-0.4c-0.2,0.2-1,0.2-1.5,0.2c-0.8,0-1.7-0.1-2.4-0.2c0-0.3,1.1,0.1,0.9-0.3c-0.7-0.2-1.5,0.1-2.2,0
		c-0.5,0-0.9-0.6-1.4-0.2c-0.5,0.1,0.4,0.3,0.5,0.4c-0.2,0.3-0.8,0-1.4,0.1c-0.3,0-0.4,0.3-0.7,0.2c0,0-0.3-0.3-0.5-0.3
		c-0.3-0.1-0.9,0.1-0.7-0.2c1.1,0.1,2,0.4,2.2-0.4c-2.3,0.3-4.7-0.2-7.3-0.1c-0.4,0.3,0.7,0.5,0.5,1c-0.4,0-0.8,0-1.2,0
		c0-0.2,0.5-0.1,0.3-0.4c-3.1,0.4-5.9-0.7-8.4,0c0.1-0.3-0.5-0.2-0.3-0.6c0.3,0,0.9,0.1,0.7-0.2c-0.7-0.2-1.4-0.2-2.1-0.1
		c-0.5,0-0.9,0.3-1.2,0.3c-0.3,0.1-0.6,0-0.9,0c-0.1,0-0.4,0.2-0.5,0.2c-0.2,0-0.5,0-0.7,0c-0.4,0.1-0.4,0.2-0.7,0.2
		c-0.6,0-1.1-0.1-1.7-0.3c-0.5,0.1,0.3,0.4-0.3,0.4c-0.2-0.3-0.4-0.3-0.9-0.3c-0.2,0-0.2-0.2-0.3-0.2c-0.2-0.1-0.4,0.1-0.5,0.1
		c-0.4,0-1.2-0.3-1.5-0.3c-0.4,0-1.1,0.2-1.5,0.2c-0.2,0-0.2-0.1-0.3-0.1c-0.1,0-0.2,0.2-0.5,0.1c-0.3,0-0.4-0.2-0.7-0.2
		c-0.2,0-0.2,0.2-0.3,0.2c0,0-0.5-0.4-0.9-0.2c-0.2,0.3,0.5,0.5,0,0.6c-0.7-0.1-1.2-0.3-1.7-0.3c-0.5,0-0.8,0.2-1.2,0.2
		c-0.1,0,0.1-0.3-0.2-0.3c0,0-0.3,0.6-0.5,0.3c-0.3-0.2,0-0.1,0-0.4c-0.9-0.2-1.4,0-2.2,0c-1.4,0-2.9-0.5-3.6,0c0.1,0,0.3,0,0.3,0.1
		c-0.5-0.2-1,0.1-1.5,0.1c-0.4,0-0.6-0.2-1-0.2c-0.4,0-0.4,0.3-0.9,0.2c0-0.2,0.2-0.2,0.2-0.4c-0.5,0-0.7,0.2-1.2,0.2
		c-0.3,0-0.5-0.1-0.9-0.1c-1.2,0-2.5,0.3-3.6,0.2c-0.5,0-0.9-0.2-1.4-0.2c0,0-0.2,0.2-0.2,0.2c-0.1,0-0.4,0-0.5,0
		c-0.4,0-1-0.2-1.5-0.2c-0.3,0-0.7,0.1-1.2,0.1c-0.5,0-1-0.1-1.4-0.1c-0.3,0-0.6,0.2-0.9,0.2c-0.2,0-0.2-0.1-0.3-0.1
		c-1,0-2.1,0.2-3.2,0.2c-0.8,0-1.7-0.1-2.6-0.1c-0.7,0-1.2,0.2-1.9,0.2c-0.3,0-0.7-0.1-1-0.1c-0.3,0-0.5,0.2-0.9,0.2
		c-1.6,0.2-3.6-0.1-5.3,0c-0.3,0-0.6,0.2-0.9,0.2c-0.5,0-1.5-0.2-1.4,0.3c1,0.2,1.8-0.1,2.9-0.1c1.6-0.1,3.5,0.1,4.6-0.1
		c0.3,0,0.4-0.2,0.7-0.2c0.2,0,0.5,0.2,0.7,0.2c0.5,0,1.3-0.1,1.4-0.1c0.2,0,0.3,0.2,0.5,0.2c0,0,0.1-0.2,0.2-0.2c0.1,0,0.4,0,0.5,0
		c1-0.1,2.2-0.1,2.4,0.3c-0.7,0.2-1.6,0-2.2,0c-0.6,0-1.1,0.2-1.7,0.2c-0.2,0-0.2-0.1-0.3-0.1c-1.1,0-2.9,0-4.1,0.1
		c-0.7,0-1.2,0-1.9,0c-0.5,0-1.1,0.2-1.7,0.2c-0.5,0-1.1,0-1.5,0c-0.3,0-0.6,0.2-0.9,0.2c-0.4,0.1-1.2-0.1-1,0.3
		c0.7-0.1,1.4,0.1,2.1,0c0.3,0,0.5-0.2,0.9-0.2c0.2,0,0.3,0.1,0.7,0.1c0.6,0,1.3-0.2,2.1-0.2c2.3-0.1,5,0.2,6.7,0
		c0.3,0,0.4-0.2,0.7-0.2c0.4,0,0.7,0.3,1.2,0.3c0.5,0,0.8-0.1,1.4-0.1c1.5-0.1,3.8,0.1,6,0.1c0.3,0,0.4-0.1,0.7-0.1
		c0.9,0,1.7,0.2,2.6,0.1c0.8-0.1,1.2,0,1.9,0c0.3,0,0.6-0.1,0.9-0.1c0.3,0,0.4,0.2,0.7,0.2c0.2,0,0.4-0.2,0.7-0.2
		c0,0,0.3,0.1,0.5,0.1c0.2,0,0.2-0.1,0.5-0.1c0.4,0,0.8,0.3,1.2,0.3c0.6,0.1,1.4-0.1,2.2,0c0.3,0,0.7,0.2,0.9,0.2
		c0.5,0.1,1.1,0,1.2,0c0.2,0,0.6,0.2,1,0.1c0.3-0.1,0.4-0.3,0.7-0.3c0.3,0,0.5,0.1,0.9,0.1c0.5,0,1-0.2,1.5-0.2
		c0.8,0,1.6,0.2,2.6,0.2c0.3,0,0.7-0.1,1-0.1c0.3,0,0.7,0.2,1,0.2c1.2,0.1,2.6-0.1,3.8,0c0.3,0,0.6,0.2,0.9,0.2c0.5,0.1,1,0,1.5,0
		c0.3,0,0.5,0.1,0.9,0.1c0.3,0,0.6-0.1,0.9-0.1c0.6,0,1.5,0.2,1.9,0.3c0.9,0.2,1-0.2,1.7-0.2c0.1,0,0.6,0.1,1,0.1c0.3,0,0.9,0,1.2,0
		c0.3,0,0.4-0.2,0.7-0.2c1.2-0.1,1.4,0.3,2.1,0.3c0.4,0,0.8-0.2,1.2-0.2c0.3,0,0.7,0.2,1,0.2c0.3,0,0.6-0.1,0.9-0.1
		c0.2,0,0.3,0.1,0.7,0.1c0.5,0,1.5-0.1,2.1,0c0.2,0,0.4,0.2,0.7,0.2c0.3,0,0.6,0,0.9,0c0.4,0,0.6,0.2,0.9,0.2
		c-0.1,0,0.4-0.1,0.5-0.1c0.3-0.1,1.2-0.1,1.5,0c0,0,0,0.2,0,0.2c0.3,0.2,1.7-0.1,1.5-0.1c0.3,0,0.6,0.2,0.9,0.2
		c0,0,0.4-0.2,0.5-0.2c0.2,0,0.2,0.1,0.3,0.1c0.1,0,0.1-0.1,0.3-0.1c1.2,0,2,0.3,2.7,0.2c0.2,0,0.6-0.2,0.9-0.2
		c0.1,0,0.2,0.2,0.5,0.2c0.3,0,0.4-0.1,0.7-0.1c0.2,0,0.5,0.2,0.7,0.2c0.9,0.2,1.3-0.1,2.1-0.1c0.2,0,0.5,0.2,0.9,0.2
		c0.8,0,0.4-0.3,0.9,0c0.4,0.3,1.7,0,2.7,0.1c0.7,0.1,1.3,0.3,1.7,0.3c0.3,0,0.7-0.2,1-0.2c-0.1,0.2-0.3,0.4-0.5,0.5
		c-0.2,0.1-0.3-0.2-0.4-0.2c-0.3,0-0.4,0.3-0.7,0.2c-0.2,0-0.4-0.3-0.7-0.2c-0.2,0-0.3,0.3-0.6,0.4c-0.1,0.1-0.6-0.3-0.5,0.4
		c0.6,0.3,1.3,0.1,1.8,0.2c1.1,0.2,2.2-0.2,3.3-0.4c0.4-0.1,1-0.2,1.2-0.2c0.3,0,0.6,0.6,0.9,0.7c0.7,0.2,1.5-0.5,2.2-0.4
		c0.2,0,0.3,0.3,0.5,0.2c0.2-0.1,0.4-0.5,0.7-0.4c0.2,0,0.4,0.6,0.6,0.7c0.3,0.1,0.6-0.2,1-0.2c0.5,0,0.9,0.3,1.3,0.2
		c0.2,0,0.3-0.2,0.6-0.2c0.3,0,0.5,0.4,0.8,0.4c0.2,0,0.6-0.2,0.9-0.2c0.4,0,0.7,0.1,1,0c0.8-0.2,1.5,0.2,2.3,0.2
		c0.3,0,0.6-0.3,0.9-0.2c0.5,0.1,1,0.4,1.4,0.4c0.3,0,0.5-0.2,0.9-0.2c0.4,0,1,0.2,1.4,0.2c1.1,0.1,2,0,3,0c0.4,0,0.9,0.4,1.3,0.4
		c0.2,0,0.2-0.2,0.4-0.2c0.3,0,0.7,0.1,1,0.2c0.4,0.1,0.6,0,1,0c0.3,0,0.5,0.3,0.8,0.2c0.2,0,0.4-0.2,0.5-0.2c0.1,0,0.2,0.4,0.4,0.4
		c0,0,0.2-0.3,0.3-0.2c0.2,0.1,0.5,0,0.7,0c-0.1,0,0.4,0,0.3,0c0.1,0,0.3,0.4,0.3,0.4c0.2,0,0.5-0.3,0.8-0.2c0.2,0,0.4,0.3,0.6,0.2
		c0.5-0.1,1-0.3,1.4-0.9c0.5,1.2,1.1,0.6,2,0.7c0.2,0,0.9,0.1,1.2,0.2c0.2,0.1,0.3,0.5,0.4,0.4c0.1,0,0.1-0.5,0.3-0.4
		c0.2,0,0.2,0.2,0.3,0.3c-0.1,0-0.3,0-0.4,0.1c0.2,0,0.7,0.4,0.3,0.4c-0.8,0.2-1.1-0.4-1.5-0.4c-0.2,0-0.3,0.1-0.3,0.1
		c-0.4,0-0.7-0.2-0.9,0.2c0.6-0.1,1.1,0.1,0.7,0.3c-0.7-0.1-0.9-0.5-1.5-0.7c-0.5-0.1-0.9,0.1-1.5,0.1c0,0-0.4-0.1-0.5-0.1
		c-0.7-0.1-2.3-0.1-2.7-0.3c0.1,0.5-0.5,0.5-0.7,0.6c-0.1,0-0.8,0-1-0.1c0,0,0-0.2,0-0.2c-0.1,0-0.3,0-0.3,0c0,0-0.1-0.3-0.2-0.3
		c-0.4-0.1-1-0.1-1.2,0c0,0.1,0,0.5-0.2,0.8c-0.7,0-0.5-0.3-0.2-0.4c-0.7-0.2-0.7,0.3-0.9,0.3c-0.3,0.1-0.7,0.3-1-0.1
		c0.3,0,0.6-0.1,0.7-0.2c-0.5-0.3-1.1,0.1-1.7,0c-0.4,0-0.5-0.2-0.9-0.2c-0.2,0-0.2,0.2-0.3,0.2c-0.2,0-0.4-0.2-0.7-0.2
		c-0.7-0.1-1.6-0.2-2.4-0.1c-0.3,0-0.6,0.3-0.9,0.3c-0.4,0.1-2.2,0.1-2.2,0.1c-0.4,0-1-0.5-1.4-0.4c-0.5,0.1-0.7,0.4-1.2,0.6
		c-0.2-0.4-0.9-0.1-1-0.1c0,0-0.2-0.2-0.3-0.2c-0.6-0.2-1.2,0.1-1.9,0.1c-0.3-0.1-0.2-0.4-0.9-0.3c-0.2,0.3,0.8,0.4,0,0.4
		c-0.8,0,0.3-0.6-0.5-0.7c-1,0-0.4,0.6-0.5,0.7c-0.5,0.2-0.5-0.3-0.9-0.4c-0.2-0.1-0.6,0.1-0.9,0c-0.2,0-0.2-0.2-0.5-0.2
		c-0.2,0-0.6,0.1-0.9,0.1c-0.4,0-0.8,0-1.2,0c-0.5,0-1.9-0.2-2.2-0.2c-0.8,0-1.8,0.5-2.7,0.3c-0.3-0.2,0-0.1,0-0.4
		c-0.9,0-0.1,0.3-0.7,0.4c-0.9,0.3-2.1-0.4-2.9,0c0-0.2,0.2-0.2,0.2-0.4c-0.6-0.3-1.2,0-1.9,0.1c-0.5,0.1-1.3,0.1-1.5,0.1
		c-0.3,0-0.4-0.2-0.7-0.2c-0.3,0-0.6,0.2-0.9,0.2c-0.5,0-1.1-0.1-1.7-0.1c-0.2,0-0.3,0.1-0.7,0.1c-0.5,0-1.1-0.2-1.7-0.2
		c-0.4,0-0.9,0-1.2,0c-0.3,0-0.6-0.2-0.9-0.2c-0.3,0-0.6,0.4-0.9,0.3c0-0.4-1.7-0.5-2.2-0.4c-0.2,0-0.6,0.3-0.9,0.3
		c-0.2,0-0.5-0.1-0.9-0.1c-0.9,0.1-1.8,0.1-2.6,0.2c0.3-0.1,0.5-0.4,0-0.4c-0.7,0.1-0.1,0.3-0.3,0.4c-0.6,0-1.1,0.2-1.4,0
		c-0.2-0.2,0-0.1-0.3-0.2c-0.2,0-0.3,0.1-0.3,0.1c-0.4,0-0.9-0.3-1,0.1c0.1-0.3-0.4-0.3-0.7-0.4c-0.6,0.4-1.4,0.7-2.2,0.4
		c0,0,0-0.2,0-0.2c-0.1-0.3-1,0-1.4,0c-0.3,0-0.3-0.1-0.7-0.1c-0.4,0-0.8,0.2-1.2,0.2c-0.3,0-0.7-0.2-1-0.2
		c-0.5-0.1-1.2-0.1-1.7-0.1c-1,0-2,0.3-2.9,0.3c-1.1,0-2.4,0-3.2,0c-1.5,0-3-0.3-4.6,0c-0.4,0-0.2-0.4-0.7-0.4
		c-0.5,0.6-1.4,0.3-2.2,0.3c-0.7,0-1.1,0-1.7,0c-0.8,0-1.8,0.1-2.2,0.1c-0.2,0-0.4-0.1-0.5-0.1c-0.4,0.1-0.8,0.3-1.2,0.3
		c-1.2,0-2.5-0.4-3.6-0.1c0.4,0.1,1,0.2,1.2,0.3c0.1,0,0.3,0.2,0.3,0.2c0.4,0,1-0.5,1.2,0c-0.7-0.2-0.9,0.3-1.5,0.3
		c-0.3,0-0.4-0.1-0.7-0.1c-0.4,0-0.7,0.1-1,0.1c-0.4,0-0.7-0.1-1-0.1c-0.3,0-0.5,0.2-0.9,0.2c-0.2,0-1-0.2-0.9,0.2
		c1,0.1,2,0.1,2.7,0.1c1.7,0.1,3.4-0.1,5.1-0.2c0.6,0,1.6-0.1,1.9-0.1c0.5,0,0.9,0.3,1.4,0.3c1,0.1,2.3-0.2,3.4-0.2
		c0.3,0,0.5,0.1,0.9,0.1c0.3,0,0.7-0.2,1-0.2c0.2,0,0.6,0.3,0.9,0.3c0.4,0.1,1-0.1,1.5-0.1c0.8,0,1.4,0.1,2.1,0.1
		c0.4,0,0.5-0.1,0.9-0.1c0.4,0,0.8,0.2,1.2,0.2c0.3,0,0.9-0.1,1.4-0.1c0.5,0,1.1,0,1.5,0c1.2-0.1,2.4,0.1,3.6,0.1
		c0.5,0,0.9-0.1,1.4-0.1c0.7,0,1.5,0.2,2.2,0.2c0.5,0,0.8-0.1,1.4-0.1c0.7,0,1.5,0.1,2.2,0.1c1.7,0.1,3.2,0,4.6,0
		c0.7,0,1.4,0.2,2.1,0.2c0.3,0,0.4-0.1,0.7-0.1c0.5,0,1.1,0.1,1.5,0.1c0.7,0.1,1,0,1.5,0c0.4,0,0.8,0.1,1.2,0.1
		c0.3,0,0.6-0.1,0.9-0.1c0.2,0,0.3,0.2,0.7,0.2c0,0,0.3-0.1,0.5-0.1c0.4,0,0.8,0,1,0c-0.1,0,0.6,0,0.5,0c0.2,0,0.4,0.2,0.5,0.2
		c0.3,0,0.8-0.1,1.2-0.1c0.4,0,0.5,0.1,0.9,0.1c0.8,0,1.5-0.2,2.2-0.4c0.8,0.6,1.7,0.3,3.1,0.3c0.4,0,1.4,0,1.9,0.1
		c0.3,0,0.5,0.2,0.7,0.2c0.1,0,0.2-0.2,0.5-0.2c0.4,0,0.3,0.2,0.9,0.2c1.3,0,2.6-0.4,3.9,0c-0.4,0.6,0.2,0.7,0.2,1.1
		c0.8-0.1,1.9,0,2.1,0.4c-1.6,0.1-3.2-0.3-4.6-0.1c-0.3,0-0.6,0.2-0.9,0.2c-0.2,0-0.3-0.2-0.7-0.1c-0.2,0-0.3,0.2-0.5,0.2
		c0,0-0.2-0.2-0.3-0.2c-1.4-0.3-1.5,0.7-2.4,0.7c-0.2-0.3,0.8-0.6,0-0.6c-0.1,0.7-0.4-0.1-0.3-0.1c-0.4,0-0.8,0.2-1.2,0.2
		c-1.1,0.1-2.6,0.1-3.8,0.1c-1.1,0.1-2.2,0.5-3.1,0c0.4-0.5,1.8,0.2,1.9-0.6c-0.5,0.2-1,0-1.2,0c-0.3,0-0.4,0.2-0.7,0.2
		c-0.5,0-1.2-0.3-1.5,0.1c0.3,0,0.7,0,0.7,0.3c-0.7,0.3-1.3,0-2.1,0c-0.3,0-0.6,0.2-0.9,0.2c-0.5,0.1-1.2-0.1-1.9-0.1
		c-0.2,0-0.2,0.1-0.3,0.1c-0.3,0-0.5-0.1-0.9,0c-0.3,0.1-1.7,0.1-2.1,0c0,0-0.1-0.3-0.2-0.3c-0.2-0.1-0.7,0-0.7,0.1
		c0.2,0,0.4,0,0.3,0.2c-1,0.3-2.5,0.1-3.2,0.1c-0.2,0-0.6,0.2-0.9,0.2c-0.2,0-0.2-0.1-0.5-0.1c-1.8,0.1-3.9,0-5.8,0.1
		c-0.2,0-0.3,0.2-0.5,0.2c0,0-0.3-0.1-0.5-0.1c-0.1,0-1,0.3-0.7-0.1c-0.7-0.1-0.3,0.5-1,0.4c-0.5-0.3-1.5-0.1-2.2-0.2
		c-0.3,0-0.4-0.3-0.7-0.2c-0.1,0.6-1.1,0.1-1.7,0.2c-0.3,0-0.7,0.3-1,0.3c-0.2,0-0.6-0.2-0.9-0.2c-0.3,0-0.7-0.1-1-0.1
		c-0.4,0-0.8,0.2-1.2,0.2c-0.4,0-0.7-0.2-1-0.2c-0.4,0.1,0.3,0.3-0.2,0.4c-0.5-0.1-1,0.1-1.7,0c-0.4-0.1-0.4-0.2-0.9-0.2
		c-0.2,0-0.6,0.1-0.9,0.1c-0.9,0-2.2,0.1-3.1,0c-0.5,0-0.8-0.2-1.2-0.2c-0.3,0-0.6,0.2-0.9,0.2c-0.2,0-0.5-0.1-0.9-0.1
		c-0.3,0-0.6,0.2-0.9,0.2c-0.2,0-0.6-0.1-0.9-0.1c-0.1,0-0.2,0.1-0.5,0.1c-0.3,0-0.4-0.1-0.7-0.1c-0.3,0-0.6,0.2-0.9,0.2
		c-0.3,0-0.5-0.2-0.9-0.2c-0.2,0-0.5,0.2-0.7,0.2c-0.3,0-0.6-0.1-0.9-0.1c-1.7,0-3.9,0.2-5.8,0.2c-0.2,0-0.6-0.1-0.9-0.1
		c-0.4,0-0.3,0.2-0.7,0.2c-0.3,0-0.4-0.1-0.7-0.1c-0.3,0-0.6,0.1-0.7,0.1c-0.3,0-0.3-0.2-0.7-0.2c-0.3,0-0.4,0.2-0.7,0.2
		c-0.1,0-1.1-0.1-1.4-0.1c-2.9,0-8.6-0.1-11.3,0.2c-0.3,0-0.7,0.2-1,0.2c0,0-0.2-0.2-0.2-0.2c-0.4-0.3-0.8,0-1.2,0
		c-0.4,0-1.2,0-1.5,0c-0.5,0-1.1-0.1-1.5-0.1c-0.2,0-0.4,0.2-0.7,0.2c-0.2,0-0.2-0.1-0.5-0.1c-1.6,0.1-3.7,0-6,0.1
		c-0.5,0-1.1,0.1-1.5,0.1c-0.5,0.1-0.9,0.3-1.4,0.3c-0.9,0.1-1.6,0-2.1,0.2c0,0,0,0.2,0,0.2c0,0-0.3,0.1-0.3,0.1
		c-0.1,0.2,0.2,0.4,0.2,0.4c-0.2,0.3-0.8,0.3-0.7,0.6c0.1,0.2,0.7,0.5,1.2,0.6c0.3,0,0.7-0.2,1-0.2c0.3,0,0.4,0.1,0.7,0.1
		c0.2,0,0.2-0.1,0.5-0.1c0.3,0,0.4,0.1,0.7,0.1c0.4,0,0.9-0.2,1.4-0.2c0.7,0,1.6,0,2.4,0c0.6,0,1.2-0.2,1.7-0.2c0.5,0,0.9,0,1.4,0
		c2.5-0.1,6.2,0.3,8.4,0c0.2,0,0.4-0.2,0.7-0.2c0.9,0,2,0.2,2.9,0.2c0.3,0,0.6-0.2,0.9-0.2c0.2,0,0.6,0.1,0.9,0.1c0.6,0,1.3,0,1.9,0
		c1.1,0,2.2-0.3,3.2-0.3c0.2,0,0.6,0.1,0.9,0.1c0.9,0,1.9-0.1,2.6,0c0.3,0,0.5,0.2,0.9,0.2c0.6,0,1.2-0.1,1.4-0.1
		c0.8,0,1,0.4,1.5-0.1c0.6,0,1,0.4,1.5,0.4c0.1,0,0.5-0.1,0.9-0.1c0.2,0,0.6,0.1,0.7,0.2c-1,0.1-3,0.2-3.8,0.2c-1,0-2.2,0-2.9,0.1
		c-0.3,0-0.4,0.3-0.7,0.3c-0.2,0.1-0.4,0.1-0.5,0.1c-0.6,0.2-0.9-0.2-1.4-0.1c-0.5,0.1-1,0.4-1.5,0.4c-0.4,0.1-0.9-0.1-1.4,0
		c-0.2,0-0.4,0.2-0.7,0.2c-0.3,0-0.6-0.1-0.9,0c-0.7,0.2-1.1,0.5-1.7,0.8c0,0.4,0.5,0.2,0.5,0.4c0,0.1-0.8,0.1-0.5,0.4
		c0.8,0.3,1.5,0.2,2.4,0.1c0.6,0,1.4,0,1.9,0c0.2,0,0.3-0.2,0.5-0.2c0.2,0,0.4,0.1,0.7,0.1c0.5,0,1.1-0.2,1.7-0.2c0.6,0,1.1,0,1.7,0
		c0.3,0,0.7-0.2,1-0.2c1-0.1,2,0.1,3.1,0c0.3,0,0.7-0.2,1-0.2c0.7,0,1.5,0,2.2,0c0.4,0,0.8-0.2,1.2-0.2c1.3-0.1,2.6,0.1,3.9,0
		c1.2-0.1,3.2-0.3,4.3-0.3c0.3,0,0.5,0.1,0.7,0.1c0.1,0,0.4-0.2,0.7-0.2c0.2,0,0.2,0.1,0.5,0.1c0.2,0,0.4-0.2,0.7-0.2
		c0,0,0.2,0.1,0.5,0.1c1.3-0.1,3,0,4.3-0.1c0.3,0,0.5-0.2,0.9-0.2c0.4,0,0.9,0.2,1.4,0.2c0.4,0,0.8-0.1,1.4-0.1
		c0.2,0,0.3,0.1,0.7,0.1c0.5,0,0.7,0,1.2,0c0.3,0,0.3-0.1,0.7-0.1c0.4,0,0.8,0.1,1.2,0.1c0.3,0,0.5-0.3,0.9-0.3
		c0.2,0,0.3,0.1,0.5,0.1c1.7,0.2,4.5,0,6.2-0.1c0.2,0,0.2,0.1,0.4,0.1c0,0,0,0,0,0.1c0,0,0,0.4,0,0.4c0,0.1-0.2,0.1-0.2,0.2
		c0,0.3,0.1,0.8,0.1,0.9c-0.1,0.6-0.5,0.5-0.4,1.1c0.1,0.3,0.4,1,0.8,1.1c0.2,0.1,0.4-0.4,0.7-0.4c0.2-0.1,0.2,0.2,0.4,0.2
		c0.1,0,0.2-0.2,0.3-0.2c0.2,0,0.2,0.3,0.4,0.2c0.3,0,0.6-0.4,0.9-0.4c0.5-0.1,1,0.1,1.5,0c0.4-0.1,0.8-0.4,1.1-0.4
		c0.3,0,0.6,0,0.9,0c1.6-0.2,4,0.6,5.4,0c0.2-0.1,0.3-0.4,0.4-0.4c0.6-0.1,1.3,0.5,1.9,0.4c0.2,0,0.4-0.4,0.6-0.4
		c0.2,0,0.4,0.2,0.6,0.2c0.4,0,0.8,0,1.2,0c0.7,0,1.4-0.6,2.1-0.7c0.2,0,0.4,0.2,0.5,0.2c0.6,0,1.2-0.2,1.7,0
		c0.2,0.1,0.3,0.4,0.5,0.4c0.4,0.1,0.8-0.2,0.9-0.2c0.5,0.1,0.6,0.8,1-0.2c0.4,0,0.6,0.7,1,0.9c0.1,0,0.4-0.3,0.5-0.2
		c0.1,0,0.4,0.2,0.4,0.4c-0.7,0.1-1.9,0.4-2.4,0.4c-0.6,0.1-1.4,0-1.9,0.2c-0.2,0.1-0.3,0.5-0.4,0.7c-0.1,0.1-0.3,0.2-0.3,0.2
		c-0.1,0.1-0.1,0.1-0.2,0.1c-0.1,0-0.1,0-0.2,0c-0.2-0.1-0.3-0.4-0.6-0.3c-0.1,0-0.3,0.2-0.4,0.4c-0.4,0-0.7,0.1-1.1,0.2
		c0,0.1,0,0.2,0,0.3c-0.1,0-0.3,0-0.4,0c-0.1,0-0.3,0.4-0.4,0.4c-0.2,0.1-0.4-0.1-0.6,0c-0.1,0.1-0.2,0.2-0.3,0.2
		c-0.8-0.2-1.7-0.8-2.8-0.6c-0.2,0-0.3,0.2-0.5,0.2c-0.2,0.1-0.5,0-0.7,0.1c-0.4,0.2-0.2,0.6-0.3,0.7c-0.6,0.5-1.4,0.3-2.2,0.3
		c-0.3,0-1.1,0.1-1.2,0.1c-0.1,0-0.7,0.9-0.7,0.9c-0.2,0.4,0,0.7,0,0.9c0,0.1-0.2,0.1-0.2,0.3c0,0.3,0.3,0.5,0,0.8
		c0.6,0.1,1.1,0.7,1.9,0.8c0.2,0,0.8-0.1,1.4-0.1c0.6,0,0.8,0,1.4-0.1c0.3-0.1,0.5-0.2,0.9-0.2c0.5,0,1,0.1,1.4,0
		c0.5-0.1,0.8-0.4,1.2-0.4c0.1,0,0.6,0.1,0.9,0.1c0.6,0,1,0,1.5,0c0.9,0.1,1.8-0.1,2.6-0.1c0.4,0,0.7,0.1,1,0.1c0.4,0,0.7-0.2,1-0.2
		c0.6,0,0.8,0.2,1,0.2c0.3,0,0.6-0.2,1-0.2c0.9-0.1,1.7,0,2.2,0c0.2,0,0.6-0.2,1-0.2c0,0,0.9,0.1,1.2,0c0.3-0.1,0.4-0.3,0.7-0.3
		c0.2,0,0.5,0.1,0.9,0.1c0.5,0,0.9-0.3,1.4-0.2c0.4,0.1,0.4,0.5,1,0.4c0.5-0.1,0-0.3,0.3-0.4c0.4,0,0.5,0.2,0.9,0.2
		c0.2,0,0.3-0.1,0.5-0.1c0.2,0,0.2,0.1,0.5,0.1c0.3,0,0.4-0.2,0.7-0.2c0.3,0,0.6,0.2,0.9,0.2c1.1,0.1,1.7-0.2,2.4-0.2
		c0.6,0,0.8,0.2,1,0.2c0.4,0,0.6-0.2,1-0.2c0.3,0,0.8,0.2,1.2,0.2c0.2,0,1.4-0.1,1.7-0.1c0.4,0,0.7-0.2,1-0.2c0,0,0.4,0.2,0.5,0.2
		c1.2,0.3,2.4,0,3.8,0c0.6,0,1.2,0.2,1.7,0.1c0.4,0,0.7-0.2,1-0.2c1.2,0,2.5,0.4,3.9,0.2c0.4,0,0.5-0.2,0.9-0.2
		c0.2,0,0.4,0.2,0.7,0.2c0.2,0,0.7-0.1,0.9-0.1c0.6,0,1.1,0,1.7,0c0.9,0,1.7,0.1,2.6,0c0.1-0.3,0.1-0.5,1-0.4
		c0.3,0.2,0.3,0.1,0.2,0.4c1.5,0.2,1.7-0.5,2.9-0.6c0.2,0.2,0.7,0.9,1.4,0.4c-0.3,0-0.6-0.1-0.7-0.2c1-0.4,1.6,0.3,2.2,0.4
		c0.8-0.4,2,0,2.9-0.1c0.2,0,0.4-0.2,0.7-0.2c0.9,0,1.8,0.2,2.9,0.1c0.7,0,1.1,0,1.5,0c0.2,0,0.3,0,0.4-0.1c0.2,0.2,0.3,0.5,0.5,0.6
		c0.2,0.1,0.4-0.1,0.5,0c0.2,0.1,0.3,0.4,0.4,0.4c0.5,0.2,0.5,0.1,0.8,0.4c0.1,0.2,0.2,0.2,0.3,0.4c0.2,0.3,0,0.9,0.1,1.3
		c0.1,0.4,0.6,1.2,0.8,1.3c0.2,0.1,0.2-0.3,0.5-0.2c0.2,0,0.2,0.3,0.4,0.2c0.2,0,0.5-0.4,0.8-0.4c0.7-0.2,1.8-0.2,2.5,0
		c0.1,0,0.2,0.4,0.3,0.4c0.2,0.1,0.4-0.1,0.7,0c0.2,0.1,0.4,0.4,0.5,0.4c0.2,0.1,0.5-0.1,0.7,0c0.2,0.1,0.4,0.4,0.7,0.4
		c0.5,0.1,0.9-0.1,1.3,0c0.2,0.1,0.5,0.2,0.7,0.4c-0.2,0-0.3,0-0.5,0c-0.2,0.1-0.3,0.2-0.5,0.3c-0.6,0.3-0.8,0.2-1.5,0.1
		c-0.7,0-1.4,0-1.9,0c0-0.2,0.2-0.2,0.2-0.4c-0.5-0.1-0.6,0.2-1,0.2c-0.4,0-0.5-0.2-0.9-0.2c-0.4,0-0.3,0.1-0.7,0.2
		c-0.2,0-1-0.2-0.9,0.2c0.7,0,1.3,0,1.9,0.2c0.2,0.1,0.9,0.1,0.7,0.3c-0.4,0-0.6-0.1-0.9-0.1c-0.7-0.1-0.7-0.1-1.4-0.1
		c0,0-0.1-0.1-0.3-0.1c-0.4,0-0.7,0.1-1-0.1c-0.3,0.1-0.3,0.4-0.5,0.6c-0.8-0.3-1.2,0.1-1.7,0.1c-0.3,0-0.4-0.2-0.7-0.1
		c-0.4,0.1-0.5,0.5-1,0.4c-0.7-0.1-0.9-0.7-0.2-0.9c0.9,0.2,1.7,0.3,2.2-0.1c-1-0.2-2.1-0.1-2.6,0c-0.6,0.2-0.4,0.4-1,0.7
		c-0.1,0.1-0.6,0.1-0.7,0.1c-0.1,0-0.4,0.2-0.5,0c0.1-0.2,1.2-0.3,0.7-0.6c-0.7,0-0.9,0.4-1.4,0.4c-0.9,0.1-2.1,0-3.1,0
		c-0.2,0-0.4,0.2-0.7,0.2c-0.3,0-0.7-0.1-1-0.1c-0.5,0-1,0.1-1,0.4c0.1,0.3,0.8,0.1,1,0.2c0,0,0.1,0.2,0.2,0.2c0.5,0,0.5-0.3,1-0.3
		c0.6,0.6,1.3,0.1,2.1,0.1c0.3,0,0.7,0.1,1,0.1c1.1,0,2.4-0.2,3.6-0.2c0.3,0,0.5,0.1,0.9,0.1c0.4,0,0.8-0.2,1.2-0.2
		c0.4,0,0.9,0,1.4,0c0.7-0.1,1.4-0.4,2.1-0.4c0.2,0,0.4,0.1,0.7,0.1c1.2,0,2.9,0.1,4.3,0c0.5,0,0.8-0.2,1.2-0.2
		c1.1-0.1,2.4-0.1,3.4-0.1c0.3,0,0.6,0.1,0.9,0.1c0.2,0,0.4-0.1,0.6-0.2c0.1,0.1,0.1,0.1,0.2,0.1c0.3,0.1,1,0.2,1,0.2
		c0.1,0,0.1-0.2,0.2-0.2c0.2,0.1,0.4,0.4,0.6,0.4c0.5,0.3,0.8-0.1,1.2,0c0.2,0.1,0.4,0.4,0.6,0.4c0.3,0,0.7-1,0.9,0
		c-0.3,1.2-1.1,0.5-1.8,0.4c-0.4,0-0.7,0.3-1.1,0.2c-0.2,0-0.4-0.2-0.6-0.2c-0.5,0.1-1.1,0.7-1.5,0.7c-0.2,0-0.4-0.4-0.7-0.4
		c-0.7,0-1.5,0.5-2.2,0.4c-0.4,0-0.8-0.5-1.2-0.4c-0.1,0-0.4,0.4-0.4,0.4c-0.4,0.1-1,0.1-1.3,0c-0.1,0-0.3-0.5-0.4-0.4
		c-0.1,0-0.2,0.6-0.3,0.7c0.1,0-0.1-0.2-0.1-0.2c-0.4-0.2-0.7,0.4-0.9,0.4c-1.1,0.3-2.4,0-3.6,0c-0.5,0-1,0.4-1.5,0.2
		c-0.2,0-0.4-0.2-0.5-0.2c-0.4,0-0.7,0.4-1.1,0.4c-0.2,0-0.4-0.2-0.6-0.2c-0.4,0-0.8,0.2-1.2,0.2c-0.2,0-0.2-0.2-0.4-0.2
		c0,0-0.2,0.2-0.4,0.2c-0.2,0-0.4-0.2-0.6-0.2c-0.4,0.1-0.7,0.5-1.1,0.4c-0.3,0-0.5-0.3-0.8-0.4c-0.7-0.3-1.5-0.2-2.1-0.2
		c-0.2,0-0.2,0.2-0.4,0.2c-0.6-0.1-1.1-0.6-1.5-0.4c-0.2,0.1-0.4,0.4-0.6,0.4c-0.2,0-0.4-0.4-0.6-0.4c-0.2,0-0.4,0.3-0.7,0.2
		c-0.2,0-0.5-0.4-0.8-0.4c-1.1-0.3-2.1,0.1-3.1-0.2c-0.3-0.1-0.7-0.1-1-0.2c-0.2-0.1-0.4-0.4-0.5-0.4c-0.1-0.1-0.3,0.1-0.4,0
		c-0.2-0.1-0.4-0.4-0.5-0.4c-0.8-0.3-1.7-0.7-2.4-0.9c-0.9-0.3-1.4-0.1-2,0.4c0,1.6,0.4,2.5,0.1,3.5c-0.4,0-0.8-0.2-1.1-0.4
		c-0.1-0.7-0.1-0.4,0-1.1c-0.6-0.4-1.1-1.6-1.9-1.3c-0.1,0-0.2,0.3-0.3,0.4c-0.1,0.1-0.3,0-0.4,0.2c-0.2,0.4-0.1,1.1-0.2,1.3
		c-0.4,1.1-0.9,0.7-1.4,0.7c-0.2,0-0.7,0.2-0.8,0.2c0,0.1-0.4,1.8-0.4,1.8c-0.1,0.8,0,1.5,0,1.8c0,0.3-0.1,0.3-0.1,0.7
		c0,0.5,0.2,1.1,0,1.5c0.4,0.3,0.7,1.3,1.2,1.5c0.1,0.1,0.5-0.3,0.9-0.2c0.4,0,0.5,0.1,0.9-0.2c0.2-0.2,0.3-0.4,0.6-0.4
		c0.3-0.1,0.7,0.1,0.9,0c0.3-0.2,0.5-0.8,0.8-0.9c0.1,0,0.4,0.3,0.5,0.2c0.4-0.1,0.6-0.1,1,0c0.6,0.1,1.2-0.2,1.7-0.2
		c0.2,0,0.4,0.3,0.7,0.2c0.2-0.1,0.5-0.4,0.7-0.4c0.4,0,0.5,0.4,0.7,0.4c0.2,0,0.4-0.3,0.7-0.4c0.6-0.2,1.1,0.1,1.4,0
		c0.2,0,0.4-0.3,0.7-0.4c0,0,0.6,0.1,0.8,0c0.2-0.1,0.3-0.6,0.4-0.7c0.2-0.1,0.3,0.2,0.5,0.2c0.3,0,0.6-0.6,0.9-0.4
		c0.3,0.2,0.2,1,0.7,0.9c0.3-0.3,0-0.6,0.2-0.9c0.2,0,0.3,0.4,0.5,0.4c0.1,0,0.2-0.2,0.3-0.2c0.1,0,0.2,0.3,0.3,0.2
		c0.2-0.1,0.2-0.4,0.4-0.4c0.2,0,0.4,0.4,0.5,0.4c0.7,0.2,1.1-0.4,1.5-0.4c0.4,0,0.5,0.4,0.7,0.4c0.2,0,0.4-0.4,0.7-0.4
		c0.2,0,0.5,0.4,0.8,0.4c0.2,0,0.9-0.2,1.1-0.2c0.3-0.1,0.5-0.5,0.7-0.4c0,0,0.3,0.4,0.3,0.4c0.8,0.6,1.5-0.1,2.4,0
		c0.4,0,0.8,0.3,1.1,0.2c0.2-0.1,0.4-0.4,0.7-0.4c0.8,0,1.6,0.8,2.5,0.4c0.2-0.1,0.3-0.4,0.5-0.4c0.1,0,0.2,0.4,0.4,0.4
		c0.2,0,0.4-0.2,0.5-0.2c0.4,0.1,0.7,0,1.1,0c0.6,0,1.1,0.3,1.7,0c0-0.6,0.1-1,0.7-0.9c0.2,0.4,0.2,0.2,0.1,0.9
		c1,0.3,1.1-1.1,1.9-1.1c0.1,0.4,0.5,1.7,0.9,0.9c-0.2,0-0.4-0.1-0.4-0.4c0.6-0.8,1,0.5,1.4,0.9c0.5-0.9,1.3,0.1,1.9-0.2
		c0.1-0.1,0.3-0.4,0.4-0.4c0.6-0.1,1.2,0.3,1.9,0.2c0.4-0.1,0.7,0,1,0c0.2,0,0.2-0.2,0.4-0.2c0.1,0,0.2,0.3,0.3,0.2
		c0.3-0.1,0.5-0.6,0.8-0.7c0.2,0,0.4,0.2,0.5,0.2c0.3,0.1,0.7-0.2,1-0.2c0.5,0,1.1,0.3,1.3,0.2c0.1,0,0.3-0.4,0.4-0.4
		c0.2,0,0.5,0.3,0.8,0.2c0.2,0,0.4-0.2,0.6-0.2c0.3,0,0.6,0.3,1,0.2c0.4-0.1,0.7,0.1,1.1,0c0.2,0,0.3-0.3,0.6-0.4
		c0.9-0.4,1.9,0.4,2.8,0c0.1-0.1,0.3-0.4,0.4-0.4c0.2,0,0.5,0.2,0.7,0.2c0.6,0,1.1-0.4,1.7-0.4c0.2,0,0.4,0.2,0.5,0.2
		c0.2,0,0.3-0.2,0.6-0.2c0.3,0,0.7,0.2,1,0.2c0.4,0,1.2-0.4,1.9-0.4c0.3,0,0.6,0.3,0.7,0.2c0.3-0.2,0.2-0.7,0.4-0.7
		c0.2,0,0.3,0.4,0.6,0.4c1,0.4,1.7-0.2,2.9-0.2c0.5,0,1.1,0.3,1.7,0.2c1-0.1,2.4,0.1,2.9-0.2c0.2-0.1,0.3-0.8,0.4-0.7
		c-0.1,0.4,0.1,0.6,0.3,0.7c-0.1,0,0.6,0,0.4,0c0.4-0.1,0.5-0.7,0.8-0.7c0.3,0,0.5,0.6,0.8,0.7c0.1,0,0.5-0.2,0.8-0.2
		c0.2,0,0.2-0.2,0.4-0.2c0.2,0,0.2,0.4,0.4,0.4c0.2,0,0.6-0.2,0.9-0.2c1.3-0.2,3,0.2,4.4-0.2c0.2-0.1,0.4-0.4,0.7-0.4
		c0.1,0,0.2,0.2,0.3,0.2c0.9,0.3,1.4-0.6,2.1-0.2c0.2,0.1,0.3,0.4,0.4,0.4c0.3,0.1,0.9-0.2,1-0.2c0,0,0.1,0.3,0.3,0.2
		c0.2-0.1,0.5-0.4,0.8-0.4c0.3,0,0.7,0.3,1,0.2c0.5-0.1,0.9-1,1.3-0.7c0,0.5-0.3,0.2-0.3,0.7c0.6-0.2,0.8,0.3,1.3,0.2
		c0.2-0.1,0-0.8,0.2-0.9c0.6-0.2,1.1,0.2,1.7,0.2c0.4,0,1.1-0.5,1.4-0.4c0.2,0.1,0.5,0.7,0.8,0.7c0.2,0,0.3-0.4,0.5-0.4
		c0.4-0.1,1.7-0.3,1.8-0.2c0.2,0.1,0.3,0.9,0.5,0.9c0-0.3,0-0.6,0.1-0.7c0.7,0.9,2,0.5,3,0.9c0.4-0.2-0.2-1,0.4-0.9
		c0.2,0.1-0.2,0.6,0.1,0.9c0.4-0.5,0.6,0.2,1,0.2c0.4,0,0.9-0.4,1.3-0.4c0.1,0,0.2,0.2,0.4,0.2c1,0.1,2.3,0.1,2.9-0.2
		c0.4-0.2,0.5-0.6,0.8-0.9c0.1-0.1,0.3-0.2,0.3-0.2c0.4-0.4,0.6,0.1,1,0.2c0.6,0.1,1.3-0.4,2.1-0.4c0.2,0,0.4,0.2,0.6,0.2
		c0.4,0,0.9-0.3,1.3-0.2c0.2,0,0.2,0.2,0.4,0.2c0.1,0,0.3-0.2,0.3-0.2c0.3,0.1,0.2,0.5,0.4,0.4c0,0,0.2-0.4,0.3-0.4
		c0.5-0.2,0.7,0.2,0.9,0.4c0,0.1,0.1,0.4,0.1,0.4c0.1,0.1,0.2-0.1,0.3,0c0.1,0.1,0.2,0.4,0.3,0.4c0.1,0,0.5-0.2,0.8-0.7
		c-0.3-0.6-0.7,0.2-1,0.2c0-0.5-0.3-0.2-0.3-0.7c0.5-0.6,1,0.1,1.5,0c0.3-0.1,0.5-0.5,0.8-0.4c0,0.2,0.1,0.3,0.1,0.4
		c0,1.4-0.8,0.9-0.8,2.2c-0.1-0.3-0.1-1-0.4-0.9c-0.3,0.8-0.5,0.2-0.8,0.2c-0.1,0-0.1,0.2-0.3,0.2c-0.1,0-0.1-0.3-0.3-0.2
		c-0.5,0.1-1.1,0.9-1.5,0.9c-0.3,0-0.4-0.7-0.7-0.4c-0.3,0.1,0.4,0.7-0.1,0.9c-0.4-0.2-0.6-0.7-0.9-1.1c-0.2,0.9-0.8,0.5-1.2,0.7
		c-0.2,0.1-0.3,0.4-0.4,0.4c-1.3,0.3-2.7-0.6-4,0c-0.2,1.2,0.8,0.1,0.8,1.1c-0.4-0.3-0.9-0.2-1.4-0.2c-0.2,0.1-0.1,0.9-0.4,0.7
		c0-0.9-0.9-1.7-1.1-0.7c0.1,0.4,0.5,0,0.6,0.4c0,0.6,0,1.2-0.3,1.1c0.1-0.5,0.2-1.1-0.2-1.1c-0.4,0.3,0.3,1,0,1.1
		c-0.2,0-0.4,0-0.6,0c0-0.3,0-0.6,0-0.9c-0.3-0.3-0.5,0.4-0.8,0.4c-0.1,0-0.4-0.2-0.6-0.2c-0.4,0-1,0.5-1.5,0.7
		c-0.3,0.1-0.7-0.1-0.9,0c-0.2,0.1-0.4,1.5-0.7,0.2c0.1-0.4,0.5-0.1,0.5-0.7c-0.6-0.5-1.4,0.6-2,0c-0.2,0.3,0.2,0.9-0.2,1.1
		c-0.5-0.1-0.9,0.3-1.3,0.4c-0.8,0.2-1.8-0.2-2.4,0.2c-0.2,0.1-0.3,0.6-0.6,0.7c-0.3,0.1-0.5-0.4-0.8-0.4c-0.2,0-0.4,0.4-0.6,0.4
		c-0.4,0.1-0.8-0.3-1.1,0.2c0.2,0.3,0.5,0.2,0.4,0.9c-0.3,0-0.8,0.2-0.8-0.4c-0.1-0.6,0.5-0.9,0-0.9c-0.2,0-0.2,0.2-0.3,0.2
		c-0.2,0.1-0.2-0.1-0.3,0c-0.4,0.2-0.8,0.9-1.4,0.7c-0.2,2.1-1.8-0.1-2.2,1.3c0-1-0.5-1-1.1-0.9c-0.1,0.5,0.5,0.9,0.1,1.3
		c-0.3,0.1-0.4-0.3-0.7-0.4c0-0.4,0.3-0.3,0.2-0.9c-0.3,0.2-0.9-0.4-0.9,0.4c0,1,0.6-0.4,0.6,0.7c-0.4,1.3-1.2-0.3-1.4-0.4
		c-0.2-0.1-0.5,0.3-0.9,0.2c-0.4,0-0.7-0.4-0.9,0.2c-0.3-0.1-0.2-0.8-0.6-0.7c0,1.2-0.7,0.3-1,0.4c-0.1,0-0.1,0.6-0.2,0.7
		c-0.2,0-0.5-0.2-0.8-0.2c-0.2,0-0.2,0.2-0.4,0.2c-0.5,0-0.3-0.3-0.6,0.2c-0.3,0.5-0.7,0.1-1.1,0.2c0,0.5,0,1.1-0.1,1.3
		c-0.5-1.2-0.9-0.4-1.4-0.2c-0.4,0.1-1.2,0.4-1.3,0.2c-0.2-0.1,0.1-0.6-0.2-0.7c-0.6,0-1.3,1-1.9,0.4c-0.1,0.4,0.3,0.7,0,0.9
		c-1.1-0.2-1.9,0.3-2.8,0.7c-0.1-1-0.7-1-1.2-1.1c-0.1,0.4,0.3,0.7,0,0.9c-0.5,0-1.1,0.7-1.4,0.7c-0.2,0-0.3-0.5-0.4-0.4
		c-0.2,0-0.4,0.4-0.5,0.4c-0.2,0-0.4-0.2-0.6-0.2c-0.3,0-0.6,0.3-0.8,0.2c-0.2,0-0.4-0.4-0.5-0.4c-0.3-0.2-0.8-0.3-1.1-0.2
		c-0.3,0-0.4,0.9-0.8,0.9c-0.2,0-0.1-0.6-0.4-0.4c-0.1,0.9-0.2,0.6-0.3,0.7c-0.3,0.2-1.1,0.2-1.2,0.2c-0.2,0-0.5-0.3-0.7-0.2
		c-0.2,0-0.3,0.4-0.4,0.4c-0.1,0-0.2-0.2-0.3-0.2c-0.4,0-1.3,0.1-1.8,0.2c-0.1,0-0.6,0.5-0.6,0.4c-0.1,0.1-0.1-0.2-0.2-0.2
		c-0.6,0.2-1.3,0.7-1.9,0.7c-0.2,0-0.2-0.3-0.4-0.2c0,0-0.2,0.4-0.2,0.4c-0.1,0.1-0.3-0.1-0.4,0c-0.1,0.1-0.2,0.5-0.3,0.7
		c-0.4,0.5-0.5,0.3-1,0.2c-0.4-0.1-0.9,0.1-1.2,0c0-0.4,0.1-0.5,0.1-0.9c-0.3-0.2-0.4,0.5-0.7,0.4c-0.2,0-0.3-0.5-0.5-0.4
		c-0.2,0.1-0.2,0.3-0.4,0.4c-0.1,0.1-0.6-0.3-0.5,0.4c0.4,0,0.9,0.1,1.2,0.4c0.1,0.1,0.6,0.2,0.4,0.7c-0.2,0-0.4-0.1-0.5-0.2
		c-0.5-0.3-0.5-0.3-0.9-0.2c0,0-0.1-0.2-0.2-0.2c-0.3,0.1-0.4,0.2-0.7-0.2c-0.2,0.3-0.2,0.8-0.3,1.1c-0.5-0.6-0.8,0.2-1.1,0.2
		c-0.2,0-0.3-0.3-0.4-0.2c-0.3,0.2-0.3,1-0.7,0.9c-0.5-0.2-0.6-1.4-0.1-1.8c0.6,0.4,1.1,0.6,1.4-0.2c-0.6-0.4-1.4-0.2-1.7,0
		c-0.4,0.4-0.3,0.8-0.7,1.3c-0.1,0.1-0.4,0.2-0.4,0.2c0,0-0.3,0.5-0.3,0c0.1-0.4,0.8-0.6,0.4-1.1c-0.5,0.1-0.6,0.7-0.9,0.9
		c-0.6,0.3-1.3-0.1-2,0c-0.1,0-0.3,0.4-0.4,0.4c-0.2,0-0.4-0.3-0.7-0.2c-0.3,0.1-0.7,0.2-0.7,0.9c0.1,0.6,0.5,0.3,0.7,0.4
		c0,0,0.1,0.4,0.1,0.4c0.3,0,0.3-0.7,0.7-0.7c0.4,1.2,0.8,0.3,1.3,0.2c0.2,0,0.5,0.2,0.7,0.2c0.7,0,1.5-0.5,2.3-0.4
		c0.2,0,0.3,0.3,0.6,0.2c0.3-0.1,0.5-0.4,0.8-0.4c0.3-0.1,0.6,0.1,0.9,0c0.5-0.1,0.9-0.8,1.3-0.9c0.1,0,0.2,0.2,0.4,0.2
		c0.8,0.1,1.9,0.3,2.8,0c0.3-0.1,0.5-0.4,0.8-0.4c0.7-0.1,1.6-0.2,2.2-0.2c0.2,0,0.4,0.3,0.5,0.2c0.2-0.1,0.4-0.6,0.7-0.7
		c0.1,0,0.4,0.2,0.7,0.2c0.6,0.1,1-0.2,1.3-0.2c0.2,0,0.2,0.3,0.4,0.2c0.3-0.1,0.6-0.4,0.9-0.4c0.4-0.1,0.7,0.3,1.1,0.2
		c0.2,0,0.3-0.4,0.5-0.4c0.6-0.2,1.3,0.2,1.9,0c0.2-0.1,0.3-0.4,0.6-0.4c0.5-0.1,0.8,0.2,1.3,0.2c0.7,0,1.5-0.4,1.9-0.4
		c0.2,0,0.4,0.3,0.6,0.2c0.1,0,0.1-0.5,0.3-0.7c0,0,0.4,0,0.4,0c0.2,0,0.4,0.2,0.7,0.2c0.7-0.1,1.4-0.6,1.9-0.7
		c0.6-0.1,0.9,0.2,1.1,0c0.4-0.4,0.8,0,1.3,0c0.3,0,0.7-0.5,1-0.4c0.2,0,0.2,0.2,0.4,0.2c0.4,0,0.8-0.3,1.1-0.2
		c0.2,0.1,0.4,0.5,0.6,0.4c0,0,0.3-0.6,0.4-0.7c0.2-0.2,0.6-0.1,0.8-0.2c0.2-0.1,0.2-0.4,0.4-0.4c0.5-0.2,1.3-0.2,1.9-0.2
		c0.2,0,0.3,0.3,0.5,0.2c0.4-0.1,0.7-0.6,1.1-0.7c0.3-0.1,0.6,0.2,0.9,0.2c1.1,0,2.2-0.6,3.3-0.7c-0.1,0.7,0.1,1,0.4,0.9
		c0.3-0.4-0.4-1.1,0.1-1.3c0.6,0.6,0.9,0.3,1.3,0c0.5-0.3,1.1-0.3,1.7-0.4c0.2-0.1,0.3-0.4,0.4-0.4c0.2,0,0.4,0.3,0.6,0.2
		c0.1-0.1,0.3-0.4,0.4-0.4c0.2,0,0.2,0.4,0.4,0.4c0.2,0,0.3-0.9,0.6-0.4c0.4,0.3,0.4,1.1,0.9,1.1c0.3-0.6-0.3-0.4-0.2-1.1
		c0.5-0.1,1.1,0.1,1.7,0c0.2,0,0.4-0.4,0.6-0.4c0.3-0.1,0.8,0.1,1.1,0c0.4-0.1,0.8-0.6,1.1-0.7c0.2,0,0.5,0.3,0.7,0.2
		c0.3-0.1,0.5-0.6,0.8-0.7c0.2,0,0.5,0.4,0.8,0.4c0.1,0,0.3-0.4,0.6-0.4c0.2,0,0.4,0.3,0.6,0.2c0.2-0.1,0.2-0.3,0.3-0.4
		c0.4-0.3,1.2-0.5,1.7-0.4c0.2,0,0.3,0.3,0.4,0.2c0.2,0,0.4-0.4,0.5-0.4c0.2,0,0.4,0.1,0.6,0c0.2-0.1,0.3-0.4,0.6-0.4
		c0.4-0.1,1.5-0.2,1.7-0.2c0.1,0,0.2,0.3,0.2,0.2c0.3-0.2,0.4-0.6,0.7-0.7c0.2,0,0.5,0.5,0.7,0.4c0.2-0.1,0.4-0.5,0.7-0.7
		c0.6-0.4,1.1-0.5,1.2,0.9c0.3-0.1,0.7,0.2,1,0c0.2-0.1,0.3-0.6,0.4-0.9c0.5-0.7,1.5-0.8,2.2-0.9c0.1,0,0.2,0.3,0.3,0.2
		c0.1,0,0.1-0.5,0.2-0.4c0,0,0.1,0.4,0.1,0.4c0.4,0.4,0.9-0.6,1.2-0.7c0.3,0,0.5,0.9,0.8,0.4c0.2-0.3,0.4,0.6,0.4-0.2
		c-0.1,0-0.3-0.1-0.2-0.4c0.3-0.3,0.5-0.8,0.8-0.4c0.3,0.3,0.4,0,0.6,0c0.1,0,0.2,0.3,0.3,0.2c0.2-0.1,0.2-0.4,0.4-0.4
		c0.2,0,0.5,0.3,0.8,0.2c0.1,0,0.1-0.2,0.3-0.2c0.2,0,0.4,0.3,0.7,0.2c0.3-0.1,0.5-1.1,0.9-0.4c0,0.6-0.6-0.2-0.4,0.7
		c0.4,0.4,0.4,0,0.9,0c-0.1-0.8,0.2-0.7,0.3-0.9c0.3-0.4,0.4-0.7,0.7-0.7c0.2,0,0.4,0.3,0.6,0.2c0.3-0.1,0.6-0.6,0.9-0.7
		c0.3,0,0.4,0.4,0.7,0.4c0.2,0,0.6-0.1,0.8-0.2c0.2-0.2,0.2-0.6,0.4-0.7c0.7-0.2,1.4,0.4,2.1-0.4c0.1,0.3,0.1,0.8,0.3,0.9
		c0.3-1.2,0.9-1.2,1.5-1.1c0.2,0,0.5,0.2,0.7,0.2c0,0,0.3-0.4,0.3-0.4c0.5-0.3,1-0.1,1.4-0.2c0.4-0.1,0.7-1.1,1,0
		c-0.2,0.2-0.6,0-0.6,0.7c0.7-0.2,1.4,0.2,2.1-0.2c0.2-0.2,0.3-0.6,0.6-0.7c0.2-0.1,0.3,0.2,0.4,0.2c0.7,0.2,0.8-0.3,1.2-0.4
		c0.1,0,0.2,0.2,0.3,0.2c0.4,0,0.9-0.1,1.1-0.2c0.1,0,0-0.5,0.1-0.7c0.3-0.3,0.7,0.2,0.7-0.4c0.1,0.4,0.3,0.9,0.8,0.7
		c0.1-0.7-0.4-0.6-0.1-1.1c0.9-0.4,1.7-0.4,2.8-0.4c0.3,0,0.6-0.2,0.8-0.2c0,0,0.2,0.5,0.2,0.4c0.4-0.2,0.4-0.9,0.8-0.9
		c0.1,0.5,0.9-0.1,0.9,0.7c0.2-1.3,1.3-0.6,2-0.9c0.4-0.1,0.6-0.6,0.9-0.7c0.1,0,0.2,0.3,0.4,0.2c0.2-0.1,0.4-0.4,0.6-0.4
		c0.2-0.1,0.3,0.2,0.4,0.2c0.1,0,0.4-0.4,0.5-0.4c0.4-0.1,0.8,0.1,1.2,0c0.5-0.1,0.8-0.6,1.2-0.4c0.2,0.1,0.4,0.4,0.6,0.4
		c0-0.5-0.2-1,0.1-1.1c0.3,0.3,0.3,1.3,0.9,1.1c0.3-0.2-0.2-1,0.2-1.1c0.9,0.6,1.8-0.4,2.5-0.2c0.2,0,0.1,0.6,0.2,0.7
		c0.1,0.1,0.3-0.3,0.6-0.2c0.5,0.1,0.2,0.6,0.6,0.4c0.4-0.1,0.4-0.8,0.9-0.9c0.2,0.1,0.1,0.5,0.2,0.7c0,0,0.8-0.2,0.8-0.2
		c0.3-0.3,0.2-1.4,0.6-1.1c0.5-0.3,0.1,1.1,0.6,0.9c0.2-0.6-0.1-0.8,0.1-1.1c0.3,0.2,0.3-0.4,0.7-0.2c0,0.3,0,0.6,0,0.9
		c0.4-0.2,0.7,0.1,1.3,0c-0.3-1.6,0.7-0.5,0.9-1.5c0.3,0.2,0.3,1.1,0.7,1.1c0.2-0.4,0.4-0.8,0.8-0.9c0.2,0,0.4,0.5,0.7,0.7
		c0.3,0.2,0.8,0.1,0.9,0c0.1-0.3,0.4-0.6,0.5-0.7c0.3-0.1,0.7,0.7,1.1,0.2c0.3,0.1-0.1-1.2,0.3-0.9c0.2,0,0.1,0.8,0.1,1.1
		c0.5,0.4,0.8-0.5,1.1-0.7c0.2-0.1,0.4,0.2,0.5,0.2c0.3,0,0.6-0.4,1-0.2c0.1-0.4-0.3-0.7,0-0.9c0.5-0.3,0.9,0.5,1.4,0.4
		c0.3,0,0.5-0.6,0.8-0.7c0.5-0.1,1.1,0.6,1.3,0.7c0.5,0.1,1-0.2,1.4-0.2c0.3,0,0.5,0.3,0.8,0.2c0.1,0,0.4-0.4,0.4-0.4
		c0.6-0.2,1.5,0.3,2.3,0c0.2-0.1,0.4-0.4,0.7-0.4c0.9-0.2,2-0.3,2.6,0c0.2,0.1,0.3,0.4,0.4,0.4c0.2,0.1,0.2-0.3,0.4-0.2
		c0.3,0.1,0.7,0.6,0.8,0.7c0.4,0.2,0.8,0.1,1,0.2c0.6,0.4,1.1,1.7,1.8,0.4c-0.1-0.1-0.2-0.3-0.2-0.7c0.2-0.5,0.4,0.3,0.7-0.2
		c0-1.1-0.4-1.5-0.2-2.9c0.2-0.3,0.3-0.8,0.7-0.9c0.1-0.9-0.5-0.4-0.4-1.3c0.4,0.2,0.7,0.2,1.1,0c0.1-0.7-0.2-1.5,0.4-1.8
		c0-0.4-0.2-0.7-0.2-0.9c0.4,0,0.7,0,1.1,0c0.7-0.1,1.3-0.3,1.9-0.2c0.3,0,0.6,0.2,0.9,0.2c-0.1-0.3-0.4-0.5,0.2-0.6
		c0.5,0.2,0.5,0.6,1.4,0.6c0.4-0.1-0.1-0.4,0.1-0.5c0,0.1,0.1,0.1,0.1,0.1c0.2,0.1,0.5,0.1,0.8,0.2c0.7,0.2,0.9,0.3,1.2,0
		c0.2-0.2,0.3-0.3,0.5-0.4c0.6-0.1,1.1-0.1,1.6-0.1c0.3,0,0.2,0.3,0.3,0.3c0.2,0,0.5-0.1,0.9-0.1c0.7,0,0.3,0.3,0.9,0.2
		c0.6-0.1,0.6-0.4,1.4-0.4c0.3,0,0.1,0.3,0.3,0.3c-0.1,0,1.2-0.1,1.2-0.1c0.5-0.1,0.3-0.7,0.9-0.6c0.7-0.1,0.2,0.5,0.9,0.4
		c0.3-0.3-0.2-0.4,0.2-0.6c0.5,0.1,0.5-0.2,1-0.1c0,0.1,0,0.3,0,0.4c0.7-0.1,1.1,0.1,2.1,0c-0.5-0.8,1-0.2,1.4-0.8
		c0.5,0.1,0.4,0.5,1,0.6c0.4-0.2,0.7-0.4,1.2-0.4c0.4,0,0.6,0.2,1,0.3c0.5,0.1,1.3,0,1.4,0c0.2-0.1,0.6-0.3,0.9-0.3
		c0.5,0,1.2,0.3,1.7,0.1c0.5,0-0.2-0.6,0.5-0.4c0.4,0,0.1,0.4,0.2,0.6c0.8,0.2,1.2-0.3,1.7-0.3c0.2,0,0.6,0.1,0.9,0.1
		c0.5,0,0.9-0.2,1.5-0.1c0.2-0.2-0.5-0.4,0-0.4c0.8-0.1,1.4,0.2,2.2,0.2c0.4,0,0.8-0.3,1.2-0.3c0.7-0.1,1.7,0.3,2.1,0.3
		c0.7,0,1.5-0.1,2.2-0.1c0.4,0,0.8,0.1,1.2,0.1c0.2,0,0.6-0.2,0.7-0.2c0.9-0.1,2.3,0.1,3.6,0c0.4,0,0.7-0.2,1-0.2
		c1.3-0.1,3.2-0.1,4.1,0c0.2,0,0.4,0.2,0.7,0.2c0.3,0,0.4-0.1,0.7-0.1c0.4,0,1,0.3,1.2,0.3c0.6,0.1,1.2,0,1.5,0.1
		c0.9,0.2,1.7,0.8,2.7,0.2c-0.2,0-0.3-0.1-0.3-0.3c0.3-0.3,0.7,0.2,1-0.1c0-0.6-0.6-0.7-0.3-1.4c0.3-0.2,0.5-0.4,1-0.4
		c0.1-0.5-0.8-0.2-0.7-0.7c0.6,0.1,1.1,0.1,1.7,0c0.1-0.4-0.3-0.7,0.7-0.9c0-0.4-0.8-0.5-0.3-0.8c0.8,0.3,0.8-0.1,1.4-0.2
		c1.7-0.2,3.5,0,5.1,0.1c0.6,0,1-0.1,1.5,0c0.2,0,0.3,0.2,0.5,0.2c0.3,0.1,0.8,0.1,1.2,0.1c1,0.1,1.3,0.1,1.9,0
		c0.5-0.1,0.8-0.2,1-0.3c0.2-0.1,0.3-0.1,0.3-0.3c0-0.4-0.4-0.4-0.5-0.7c0-0.2,0.5-0.1,0.5-0.2c-0.8-0.1-0.2-0.6-0.3-0.9
		c-0.1-0.2-0.7-0.5-0.9-0.7c-0.1-0.1,0-0.3-0.2-0.3c-0.5-0.2-1.5-0.1-2.2-0.2c-0.2,0-0.3-0.2-0.5-0.2c-0.8-0.1-1.2,0-1.4-0.4
		c0.1-0.3,0.5-0.3,0.5-0.7c-0.7-0.4-1.3-0.8-2.2-0.8c-0.6-1,0.9-1.1,1.9-0.8c0.2-0.4,1.1-0.4,1.7-0.6c0.4-0.2-0.4-0.6,0.3-0.7
		c0.8,0.3,1.5,0.2,2.2,0.1c0.6,0,1.2,0.1,1.7,0.1c0.4,0,0.8-0.2,1.2-0.2c0.2,0,0.6,0.1,0.9,0.1c0.3,0,0.5-0.1,0.7-0.1
		c0.3,0,0.6,0.1,0.9,0.1c0.7,0,2-0.1,2.9-0.1c0.2,0,0.6-0.1,0.7-0.1c0.4,0,0.5,0.2,0.9,0.2c0.2,0,0.4-0.2,0.7-0.2
		c0.3,0,0.6,0.1,0.9,0.1c0.8-0.1,1.6-0.3,2.4-0.2C399,124,397.6,124.7,396.7,124.6z M148.8,91.8c-0.1-0.5,0.2-0.3,0.1-0.2
		c0.2-0.2,0.5-1,0.8,0C149.6,92,149,91.6,148.8,91.8z M44,113.4c0-0.5,1.9-0.5,1.9,0C45.1,113.5,44.9,113.4,44,113.4z M46.7,113.5
		c-0.6-0.1-0.2-0.4,0-0.6c0.4,0.2,1.3,0.1,1.4,0.4C47.4,113.5,46.9,113.1,46.7,113.5z M66.7,113.5c-0.6-0.1-1.6,0.1-2.2-0.1
		c0.1-0.1,0.2-0.2,0.2-0.3c1.2,0.1,2.2-0.2,2.6,0.6C67,113.9,66.9,113.5,66.7,113.5z M77,113.5c0.6-0.1,0.7,0.1,1,0.2
		C77.8,114,76.7,114.1,77,113.5z M78.7,113.6c0.3,0,0.4-0.1,0.7-0.1c0.1,0.1,0.2,0.2,0.2,0.4C79.1,113.9,78.6,113.9,78.7,113.6z
		 M80.9,113.6c0.7-0.1,1.1,0,1.4,0.2C82,114,80.7,114.1,80.9,113.6z M90.3,114.2c-0.4,0-0.8,0-1-0.1
		C89.2,113.8,90.6,113.7,90.3,114.2z M93.2,113.7c0.9-0.1,1,0.2,1,0.7C93.4,114.5,93.4,114.1,93.2,113.7z M96.6,114.2
		C95.6,114.9,95.2,113.5,96.6,114.2L96.6,114.2z M27.1,117.6c0.5,0,1.3-0.1,1.5,0.1C28.6,118,26.9,118.1,27.1,117.6z M29.8,117.8
		c0-0.3,1.2-0.3,1.4-0.1C31.3,118.1,30,117.9,29.8,117.8z M33.7,117.9c-0.5,0.1-0.7,0.1-1-0.1C32.7,117.5,33.9,117.5,33.7,117.9z
		 M41.4,118.3c-0.4-0.2-0.9-0.5-1.5-0.2C39.7,117.2,42.4,117.6,41.4,118.3z M44.8,117.9c-0.6,0-0.8,0.3-1-0.1
		c-0.1-0.1-0.4-0.1-0.3-0.3C43.9,117.7,44.9,117.4,44.8,117.9z M45.7,117.8c-0.2-0.4,0.6-0.1,1-0.1c0.5,0,0.9-0.2,1.4,0
		C47.6,118.1,46.1,117.8,45.7,117.8z M53.4,117.9c0.6,0,1.3-0.3,1.4,0.2C54.2,118.2,53.5,118.4,53.4,117.9z M56.5,118.1
		c-0.5,0-0.9,0-1.4,0c0.4-0.6,1.8-0.1,2.4,0.1C57.7,118.6,56.9,118.2,56.5,118.1z M59.9,117.7c-0.5,0-1,0-1.2-0.1
		C58.8,117.3,60,117.2,59.9,117.7z M60.6,118.1c0.3-0.3,1,0,1.2,0.1C61.6,118.7,60.6,118.4,60.6,118.1z M62.1,118.4
		c0-0.3,0.8-0.3,1-0.1C63.1,118.5,62.4,118.3,62.1,118.4z M66.5,117.6c0.2-0.5,0.8-0.1,1.2-0.1c0.5-0.1,1-0.5,1.9-0.3
		c0.2,0.3,0,0.4,0.2,0.8C68.5,117.8,67.8,117.8,66.5,117.6z M68.6,118.6c0.4-0.6,1.8,0.1,2.4-0.2c0,0.1,0.2,0.1,0.3,0.1
		C71,118.9,69.1,118.7,68.6,118.6z M80.7,119.1c-0.3,0-0.6,0-0.9,0C79.7,118.7,80.9,118.7,80.7,119.1z M83.3,117.9
		c-0.4-0.1-1.2,0.2-1-0.2C82.6,117.8,83.4,117.5,83.3,117.9z M83.6,118.9c0.6,0,0.8-0.3,0.9,0.2C84.3,119.2,83.6,119.2,83.6,118.9z
		 M86,119.1c-0.4,0.1-0.9,0.2-0.9-0.2C85.5,119,86.2,118.8,86,119.1z M88.1,118c0.6,0.1,0.8-0.2,1.2,0c-0.9,0.5,0.4,0,0.3,0.6
		C89.1,118.8,88.1,118.5,88.1,118z M93.9,119.6c-0.2,0.1-0.6,0.1-1,0.1C92.6,119.3,94,119.2,93.9,119.6z M46.5,124
		c-0.5,0.1-1.7,0-2.4-0.1c0.3-0.4,2-0.3,2.4-0.2C46.5,123.8,46.5,123.9,46.5,124z M47.4,123.8c0.4-0.3,0.7-0.1,1.5-0.2
		c0.1,0.1,0.2,0.2,0.3,0.2C49.1,124.2,47.6,124,47.4,123.8z M49.4,123.9c0-0.6,1-0.2,1.5-0.2c0.6,0,1.3-0.3,1.7,0
		c0.3,0,0.3,0.1,0.3,0.2C52.2,124.1,50.3,124.1,49.4,123.9z M54.4,123.7c0.4-0.2,1,0,1.2,0.2C55.4,124.1,54.3,124,54.4,123.7z
		 M57.3,123.9c-0.1-0.3,0.7-0.2,1.2-0.2c0.7-0.1,1.5-0.2,1.5,0.4C59.1,123.8,58.2,124.1,57.3,123.9z M63.1,123.9
		c-0.4,0-1.5,0.3-2.1,0c0-0.4,1.6-0.1,2.1-0.3C63.1,123.7,63.1,123.8,63.1,123.9z M66.9,123.9c-0.4,0-0.8,0.3-1.2,0
		c0.1-0.4,1.7-0.2,2.1-0.1C67.7,124.2,67.1,123.9,66.9,123.9z M69.1,124.2c-0.4,0-0.8,0-1.2,0C67.8,123.8,69.3,123.5,69.1,124.2z
		 M73.7,124.2c0-0.1,0-0.2,0-0.3c0.2,0,0.5,0,0.7,0C74.2,124,74.3,124.3,73.7,124.2z M75.6,124.2c-0.2-0.1-0.9,0.1-0.9-0.1
		c-0.1-0.4,0.9-0.1,1.2-0.3C75.9,123.9,75.4,123.9,75.6,124.2z M77.1,124.1c0-0.3,0.6-0.3,0.9-0.1C78,124.3,77.3,124.2,77.1,124.1z
		 M80.7,123.9C81.3,124.8,78.6,124.1,80.7,123.9L80.7,123.9z M88.8,124.3c0-0.3,0.6-0.3,0.9-0.1C89.6,124.5,89,124.5,88.8,124.3z
		 M97.6,124.5c-0.4,0-0.9,0-0.9-0.3C97.3,124.2,97.7,124.2,97.6,124.5z M38.5,131.1c-0.1-0.4,0.5-0.2,0.9-0.2
		c0.5-0.1,1.4-0.2,1.4,0.2C40.1,131.4,39.5,131,38.5,131.1z M41.8,131.1c0.4-0.1,0.8-0.2,0.9,0.2C42.4,131.5,41.6,131.5,41.8,131.1z
		 M43.8,131.5c-0.6,0-1,0-0.9-0.4C43.2,130.9,44,131,43.8,131.5z M46.2,130.8c-0.3,0.2,0,0.1,0,0.4c-0.5,0.1-0.4-0.2-0.9-0.1
		C45.3,130.8,45.8,130.8,46.2,130.8z M46.7,132.7c-0.6,0-1.5,0.1-1.9-0.1C44.9,132.2,46.9,132.2,46.7,132.7z M47.2,131.1
		c0.1-0.4,0.8-0.4,1.2-0.4c0.6,0,1,0.3,1.9,0.1c0.1,0.2,0.4,0.3,0.3,0.6C49.5,130.9,48.2,131.4,47.2,131.1z M50,129.9
		c0-0.1,0-0.2,0-0.3c0.4,0,0.5,0.1,0.7,0.1C50.6,129.9,50.3,130,50,129.9z M53.7,129.3c0.4-0.2,0.7-0.4,1.5-0.3
		C55.2,129.5,54.2,129.6,53.7,129.3z M55.6,130.9c-0.2-0.4,0.9-0.4,1.2-0.2C56.8,131,56.1,130.9,55.6,130.9z M60.6,132.1
		c0.1-0.3,0.2-0.6,0.3-0.8C61.5,131.4,61.4,132.3,60.6,132.1z M61.9,130.8c-0.7,0.1-1.4,0.2-2.6,0c1-0.2,2.2-0.7,3.4-0.3
		C62.9,130.8,62.3,130.7,61.9,130.8z M64,129.1c0.2-0.3,1.1,0,0.9,0.3C64.2,129.5,64.3,129.1,64,129.1z M66.9,130.6
		c-0.2,0-0.5,0.2-0.7,0.2c-0.5,0-1.2-0.1-1.7-0.2c0.3-0.6,1.6-0.1,2.2-0.1c0.3,0,0.6-0.3,0.9-0.3c0.2,0,0.4,0.2,0.7,0.2
		c0.4,0.1,0.7,0,0.9,0.1C68.6,131,67.6,130.6,66.9,130.6z M69.3,130.6c0.1-0.2,0.5-0.3,0.9-0.3C70,130.5,69.7,130.9,69.3,130.6z
		 M180.7,168.5c-0.1-0.5,0.4-1.1,0.8-0.2C181.3,169,180.8,169,180.7,168.5z M183.6,168.5c-0.1-0.9,0.7-1.2,1-0.7
		C184.5,168.9,184,168,183.6,168.5z M193.2,166.7c-0.4,0-0.7,0-1.1,0c-0.1-0.5,0.7-0.7,0.8-0.7C193.1,166.1,193.3,166.3,193.2,166.7
		z M216.6,162.3c-0.3,0-0.5,0-0.7-0.2C216,161.5,216.9,161.3,216.6,162.3z M223.3,158.8c0.1-0.8,0.4-1.3,0.8-0.9
		C223.9,158.5,223.7,158.9,223.3,158.8z M231.6,159.2c-0.3,0.2-0.6,0.4-0.7-0.4C231.2,158.9,231.7,158.4,231.6,159.2z M234.5,160.1
		c-0.2,0-0.4,0-0.6,0C233.8,159.4,234.6,159.4,234.5,160.1z M200.7,145.6c-0.8-0.6-1.5-0.2-2.2-0.1c-0.6,0.1-1.8,0.2-2.1,0.1
		c-0.2-0.1,0.2-0.3-0.3-0.3c-1,0-2,0.5-2.9,0.2c-0.2,0.2,0.5,0.4,0,0.4c-1.8-0.1-3,0.1-4.3,0.3c-0.1-0.5-1.1-0.5-1.9-0.6
		c-0.2,0.2,0.5,0.4,0,0.4c-0.8,0-1.7,0.4-2.2,0.3c-0.2,0-0.4-0.2-0.7-0.2c-0.3,0-0.6,0.2-0.9,0.2c-0.2,0-0.6-0.1-0.9-0.1
		c-0.2,0-0.3,0-0.5,0c-0.4-0.2-0.8-0.5-1.3-0.4c-0.1,0-0.1,0.3-0.2,0.2c-0.1-0.1-0.1-0.1-0.2,0c-0.1,0-0.3,0-0.4-0.1
		c0-0.1-0.1-0.2-0.1-0.2c-0.1-0.1-0.2,0.1-0.4,0.2c-0.1,0-0.2,0-0.3,0c-0.1-0.1-0.2-0.3-0.4-0.4c-0.4-0.2-1,0.1-1.3,0
		c-0.2-0.1-0.5-0.6-0.8-0.7c-0.3-0.1-0.6,0.3-0.9,0.2c-0.2,0-0.2-0.3-0.4-0.4c-0.2-0.1-0.3,0.3-0.4,0.2c-0.1,0-0.2-0.4-0.3-0.4
		c-0.7-0.1-1.4,0.1-2.1,0c-0.3,0-0.8-0.4-1.1-0.4c-0.3,0-0.6,0.3-1.1,0c-0.1-0.1-0.3-0.4-0.4-0.4c-0.2-0.1-0.3,0.2-0.4,0.2
		c-0.2,0-1-0.3-1.4-0.4c0.2-1.1,0.6-1.1,1.1-0.9c0.2,0.1,0.3,0.4,0.4,0.4c0.3,0,0.7,0.1,1,0c0.3-0.1,0.6-0.6,0.9-0.7
		c0.1,0,0.4,0.4,0.4,0.4c1,0.4,2.9-0.5,4.2-0.4c0.5,0,0.7,0.4,1.1,0c0.2-0.2,0.2-0.2,0.3-0.4c0.2-0.3,0.7-0.7,1.3-0.4
		c0.2,0.1,0.4,0.6,0.7,0.7c0.2,0,0.4-0.4,0.7-0.4c0.3-0.1,0.6,0.2,1,0.2c0.4,0,0.9-0.1,1.3-0.2c0.5-0.1,0.8-0.5,1.4-0.2
		c0.2,0,0.1-0.6,0.2-0.8c0.2,0,0.4,0,0.6,0c0.1,0.2,0.2,0.3,0.3,0.4c0.2,0.1,0.8,0.2,1.2,0.2c0.2,0,0.4-0.2,0.5-0.2
		c0.2,0,0.5,0.4,0.7,0.4c0.3,0,0.6-0.4,1-0.4c1-0.2,2,0.1,2.3-0.2c0,0,0.1-0.1,0.1-0.2c0.4,0,0.8,0,1.2,0c0.2,0.1,0.4,0.1,0.7,0
		c0.4,0,0.7,0,0.9-0.1c0.1,0,0.2-0.1,0.3-0.2c0.1,0,0.2-0.1,0.4-0.1c0,0.2,0.2,0.2,0.5,0.3c-0.1,0,0.7,0,0.7,0c0.1,0,0.2,0,0.3-0.1
		c0.1,0.1,0.1,0.1,0.2,0.1c0.2,0,0.3-0.3,0.4-0.4c0.1,0,0.1,0,0.2,0c0.4,0,0.8,0.3,1.2,0.3c0,0,0,0,0,0c0.1,0,0.3,0,0.5,0
		c0.2,0,0.5-0.1,0.7-0.1c0.1,0,0.2,0,0.3-0.1c0.1,0,0.2,0,0.3,0c0.1,0,0.3,0.1,0.5,0.1c0.1,0,0.1,0,0.2,0.1c0,0,0.1,0,0.1,0
		c0.5,0.1,1.1,0.2,1.7,0.1c0.2,0.4,0,0.3,0,0.9c0.4,0.1,0.3-0.4,0.6,0c0.2-0.3,0.2-1,0.5-0.9c0.1,0.5-0.2,0.3-0.2,0.7
		c0.2,0.5,0.8,0.1,1.2,0.2c0.3,0,0-0.7-0.1-0.7c0.2-0.5,0.8-0.1,1.1-0.2c0.1,0.3,0.1,0.8,0.2,1.1c0.2,0.3,0.2-0.4,0.2-0.4
		c0.1,0,0.3,0.4,0.4,0.4c0.2,0.1,0.5,0,0.7,0c0.2,0,0.3-0.4,0.6-0.4c0.2-0.1,1-0.2,1.1-0.2c0.1,0,0.1,0.3,0.2,0.2
		c0.3-0.1,0.5-0.4,0.8-0.4c0.5,0,1.1,0.4,1.7,0.4c0.3,0,0.8-0.3,1.1,0c0.3,0.4,0.3-0.1,0.8-0.2c0.1,0,0.3,0.2,0.4,0.2
		c0.2,0,0.2-0.2,0.3-0.2c0.6,0,1.1,0.6,1.7,0.7c0.2,0,0.4-0.2,0.6-0.2c0.6,0,1.8,0.2,2.4,0.2c0.7,0,1.6-0.1,2.2,0
		c0.4,0,0.2,0.4,0.3,0.7c0.3,0.2,0.6-0.4,1-0.4c0.2,0,0.4,0.4,0.6,0.4c0.3,0,0.7-0.4,1-0.4c0.2,0,0.2,0.3,0.4,0.4
		c0,0,0.6-0.2,0.7-0.2c0,0,0.6,0.4,0.6,0.9c-0.3,0-0.5,0.2-0.9,0.2c-0.1,0-0.4-0.3-0.6-0.2c-0.1,0-0.2,0.2-0.3,0.3
		c-0.1,0-0.2,0-0.4,0.1c0.1,0,0.1,0.1,0.2,0.1c-0.1,0.1-0.2,0.2-0.3,0.2c0,0-0.1-0.2-0.2-0.4c0.2-0.1,0.3-0.1-0.2-0.1
		c-0.2,0-0.4,0.1-0.5,0.1c-0.3,0.1-0.3,0-0.5,0c-0.6,0.1-1.3,0.5-2.2,0.3c-0.4,1.1-2.8,0-3.4,0.7c-0.1-0.5-0.8-0.5-1.7-0.4
		c-0.1,0.3,0.8,0.5,0.2,0.7c-0.5,0.1-0.7-0.2-1-0.2c0-0.2,0.5-0.1,0.3-0.4c-0.4,0.1-1.5-0.2-1.4,0.2c0,0.2,0.1,0.2,0.3,0.2
		c0,0.1,0,0.2,0,0.4c-0.6,0-1.4-0.4-1.7-0.5c-0.4,0-0.8,0.1-1.4,0.1c-0.6,0-1-0.2-1.4,0.1c-0.4,0-0.3-0.4-0.9-0.3
		c0.1,0.6-1.1,0.2-1.5,0.2c-0.1,0-0.1,0.3-0.3,0.3c-0.3,0-0.8-0.1-1.2-0.1c-0.3,0-0.4,0.1-0.7,0.1c-0.7,0-0.5-0.1-0.9,0.1
		c-0.4,0.3-1.2,0-1.7,0.1C200.9,145.2,200.9,145.4,200.7,145.6z M185.8,146.9c-0.2-0.2,1-0.3,1.2-0.3c0.3,0,0.6,0.2,0.5,0.3
		C187,146.9,186.4,146.9,185.8,146.9z M117.6,133.4c-0.1,0.5-0.3,1.2-0.5,0.7C117.2,133.6,117.4,133.5,117.6,133.4z M111.5,137.2
		c0.1-0.5,0.1-1.1,0.2-1.5C112,135.7,112,137.6,111.5,137.2z M110.7,134.5c0.6-0.3,1.4-1.4,2.2-0.7c0.1,0.7-0.3,0.5-0.6,0.7
		C111.9,134.8,111.4,135,110.7,134.5z M109,134.3c0,0.6-0.5,0.4-0.8,0.4C108.2,133.8,108.9,134,109,134.3z M103.7,134.3
		c0.4,0,0.7,0.6,1.2,0.2c0,0.4,0.2,0.6,0.2,1.1c-0.7-0.9-1.6,0-2.2-0.4C102.9,134.4,103.4,134.3,103.7,134.3z M104.6,132.7
		c0-0.1,0-0.2,0-0.3c0.1,0,0.3,0,0.4,0C105,132.7,104.8,132.8,104.6,132.7z M107.7,131.7c-0.2,0-0.4-0.1-0.3-0.3c0.3,0,0.4,0,0.5,0
		C107.9,131.5,107.8,131.6,107.7,131.7z M102.2,135.4c-0.3,0.2-0.3-0.3-0.5-0.2c0-0.6,0.3-0.6,0.5-0.7
		C102,134.9,102.2,134.8,102.2,135.4z M102.6,138.3c-0.4-0.1-1,0.2-1.2-0.2C101.4,137.4,102.7,137.2,102.6,138.3z M100.7,135.8
		c-0.4,0.1-0.6-0.1-0.6-0.9C100.3,134.6,100.8,134.8,100.7,135.8z M99.4,135.2c0.3-0.1,0.5-0.3,0.5,0.4
		C99.7,136,99.3,135.9,99.4,135.2z M115.4,133.9c0.2,0,0.4-0.7,0.5-0.7c0.1,0,0.3,0.4,0.4,0.4c0.2,0.1,0.4-0.1,0.6,0.2
		c-0.3,1-1,0.2-1.4,0.2c-0.1,0-0.3,0.4-0.4,0.4c-0.3,0-0.8-0.3-1.1-0.4C114.2,132.9,115,133.9,115.4,133.9z M120.2,134.3
		c-0.1,0.4-0.5,0.6-0.7,0.2C119.5,133.9,120,134,120.2,134.3z M119.6,133.6c0-0.2,0.1-0.3,0.2-0.4c0,0,0,0,0.1,0
		c0.1,0-0.1,0.2,0,0.2c0.1,0.1,0.3,0.2,0.4,0.2C120.1,133.9,119.7,133.9,119.6,133.6z M124,136.3c-0.2,0-0.4,0.1-0.4-0.2
		C123.4,135.3,124.2,135.5,124,136.3z M125.3,135.8c-0.1,0.4-0.2,0.8-0.6,0.7C124.7,135.8,125.1,135.3,125.3,135.8z M169.8,99
		c0.2-0.5,0.4-0.4,0.7-0.2C170.4,99.4,169.9,99.3,169.8,99z M184.5,103.4c0.2-1,0.9,0.1,1.4-0.2C185.8,104.3,185,103.6,184.5,103.4z
		 M192.3,105.2C193.3,104.5,192.6,106.7,192.3,105.2L192.3,105.2z M197.6,106.3c0.2,0,0.4,0,0.7,0
		C198.3,106.6,197.6,107.2,197.6,106.3z M205,106.7c0.4,0,0.8,0,1.2,0c0.1,0.6-0.2,0.4-0.3,0.4C205.6,107.2,204.9,107.4,205,106.7z
		 M226.1,142.7c-0.3,0.1-0.7,0.4-0.9,0C225.2,141.9,226.2,141.6,226.1,142.7z M137,114.5c0.5,0,1.3,0.1,2,0.2
		c-0.6,0.1-1.1,0.2-1.5,0.2c-0.6,0-0.5-0.2-0.8-0.2C136.8,114.5,136.9,114.5,137,114.5z M212.9,144.5c-0.1-0.1-0.2-0.2-0.2-0.2
		C212.9,144.3,213,144.2,212.9,144.5C213,144.5,212.9,144.5,212.9,144.5z M242.2,145.1c-0.3,0.2-1.5,0.7-1.4-0.4
		C241.4,145,242.1,143.9,242.2,145.1z M243.5,147.7c0.2,0,0.8-0.2,0.7,0.4c-0.3,0.3-0.6-0.1-1.1,0
		C243,147.4,243.2,147.7,243.5,147.7z M168.1,97.9c-0.3-0.1-0.2-0.4-0.4-0.4c-0.1,0-0.3,0.5-0.3-0.4c-0.3-0.3-0.3,0.3-0.5,0.2
		c-0.2,0-0.3-0.4-0.4-0.4c-0.4-0.1-0.5,0.3-0.9,0c0,0-0.2,0.1-0.2,0c0,0,0-0.4,0-0.4c-0.2-0.1-0.7-0.2-0.9-0.2
		c-0.2,0-0.4,0.5-0.7,0.4c-0.3,0-0.3-0.5-0.5-0.7c-0.2-0.1-0.3,0.2-0.4,0.2c-0.2,0-0.4-0.4-0.5-0.4c-0.2,0-0.8,0.1-1.2,0
		c-0.2-0.1-0.3-0.3-0.4-0.4c-0.2-0.1-0.4,0.1-0.7,0c-0.1-0.1-0.2-0.4-0.3-0.4c-0.2-0.1-0.6-0.2-0.9-0.2c-0.2,0-0.2,0.3-0.3,0.2
		c-0.2,0-0.3-0.4-0.4-0.4c-0.4-0.2-0.9-0.1-1.4-0.2c-0.3-0.1-0.5-0.4-0.8-0.4c-0.3-0.1-0.6,0.1-0.9,0c-0.2-0.1-0.4-0.4-0.6-0.4
		c-0.2-0.1-0.6,0.2-1,0c-0.1-0.1-0.3-0.4-0.4-0.4c-0.8-0.2-1.6,0.3-2.2-0.9c0.4-0.6,1,0.1,1.5,0.2c0.2,0.1,0.5-0.1,0.7,0
		c0.2,0.1,0.2,0.4,0.3,0.4c0.2,0.1,0.2-0.2,0.2-0.2c0,0,0.5,0.4,0.6,0.4c0.1,0,0.2-0.3,0.4-0.2c0.2,0.1,0.5,0.4,0.8,0.4
		c0.7,0.1,1.8-0.2,2.3,0.4c0.1,0.1-0.2,0.2-0.2,0.2c0.4,0.1,0.8-0.3,1.2-0.2c0.2,0,0.3,0.6,0.4,0.7c0.2,0.1,0.2-0.2,0.3-0.2
		c0.3,0,1.3,0.5,1.8,0.4c0.1,0,0.2-0.3,0.3-0.2c0.1,0,0.2,0.4,0.2,0.4c0.1,0.1,0.2-0.1,0.3,0c0.1,0.1,0.3,0.4,0.4,0.4
		c0.1,0,0.3-0.2,0.4-0.2c0.4,0,1,0.4,1.4,0.4c0.3,0,0.6-0.1,0.9,0c0.2,0.1,0.4,0.4,0.5,0.4c0.3,0,0.6-0.2,0.9-0.2
		c0.3,0,1.4,0.1,1.5,0.4c0.2,0.6,0.1,0.2,0.6,0.2c0.2,0,0.4,0.4,0.4,0.4c0.2,0,0.1-0.3,0.4-0.4c0,0,0,0.2,0.1,0.2c0,0,0-0.2,0.1-0.2
		c0.2,0,0.3,0.4,0.5,0.4c0.6,0.2,1.3-0.1,1.5,0c0.4,0.2,0.6,1,1,1.1c0.3,0.1,0.5-0.2,0.8-0.2c0.7-0.1,1.6,0.7,2.3,0.7
		c0.2,0,0.4,0,0.5-0.4c0.7,1.4,2.4,0.7,3.7,1.5c0.2,0.8-0.4,0.1-0.3,0.7c0.1,0.5,0.7,0.1,1,0.2c0.2-1-0.7,0.1-0.6-0.9
		c0.3,0.1,0.2-0.5,0.6-0.2c0.1,0.1,0.1,0.6,0.2,0.7c0.6,0.2,1.3-0.1,1.9,0c0.2,0,0.4,0.4,0.6,0.4c0.2,0.1,0.4-0.1,0.7,0
		c0.3,0.1,0.5,0.4,0.8,0.4c0.5,0.1,1-0.1,1.5,0c0.4,0.1,0.9,0.6,1.3,0.7c0.2,0,0.8-0.2,1.2,0c0.1,0.1,0.3,0.4,0.4,0.4
		c1,0.2,2-0.4,2.9,0c0.2,0.1,0.2,0.6,0.3,0.7c0.5,0.4,1-0.1,1.5,0c0.4,0.1,0.5,0.5,1.1,0.4c0.1,0,0.5-0.2,0.4-0.2
		c0.2,0,0.4,0.4,0.6,0.4c0.2,0,0.4-0.2,0.5-0.2c0.3,0,0.6,0.3,1,0.4c0.1,0,0.3-0.1,0.4,0c0.4,0.2,0.9,0.6,1.7,0.7
		c0.2,0,0.2-0.2,0.4-0.2c0.2,0,0.3,0.2,0.4,0.2c0.5-0.1,0.7-0.7,1,0c0.1,0.3,0.5,0.1,0.9,0.2c0.4,0.1,0.8,0.6,1.3,0.7
		c0.3,0.1,0.5-0.2,0.8-0.2c0.4,0,0.8,0.4,1.2,0.4c0.3,0.1,0.8-0.1,1.1,0c0.3,0.1,0.6,0.6,0.9,0.7c0.4,0.1,1.2,0.2,1.5,0.2
		c0.1,0,0.2-0.3,0.3-0.2c0.2,0,0.2,0.3,0.4,0.4c0.2,0.1,0.8-0.3,0.9,0c0.1,0.2,0.1,0.6,0.2,0.7c0.2,0.1,0.4-0.3,0.7-0.2
		c0.2,0.1,0.5,1.1,1.1,0.7c-0.1,1.4-1-0.1-1.1,1.1c-0.4,0.3-0.8-0.3-1-0.2c-0.2,0.1-0.2,0.4-0.4,0.4c-0.4,0.2-0.1-0.6-0.3-0.9
		c-0.1-0.2-0.4,0.1-0.5,0c-0.1,0-0.3-0.7-0.6-0.7c-0.3-0.1,0.1,1-0.3,0.7c-0.4,0.1-0.1-0.5-0.1-0.9c-0.2,0-0.4,0-0.7,0
		c-0.3,0.4,0.6,0.5,0.2,1.1c-0.3,0-0.7,0.2-1,0c-0.2-0.1-0.1-0.5-0.2-0.7c-0.1-0.1-0.3-0.1-0.3-0.2c-0.3-0.4-1.4-1.4-2-0.4
		c0,0,0.4,0.5,0.1,0.4c-0.1,0-0.3-0.4-0.4-0.2c-0.1,0.1,0,0.3-0.1,0.4c-0.1,0.1-0.4,0.2-0.3,0.2c-0.2,0.1-0.2-0.4-0.3-0.4
		c-0.2-0.1-0.3,0.4-0.4,0.4c-0.2,0-0.3-0.4-0.4-0.4c-0.2,0-0.2,0.4-0.4,0.4c-0.2,0-0.2-0.4-0.5-0.4c-0.7,0-1.5,0.5-2-0.9
		c-0.3,0.1-0.6,0.3-0.9,0.4c0.1-0.3,0.1-0.6,0-0.9c-0.4-0.1-0.6,0.1-1,0c-0.2-0.1-0.3-0.4-0.4-0.4c-0.5-0.1-1,0.2-1.7,0
		c-0.4,0,0,0.9-0.2,0.9c-0.2,0.1-0.2-0.3-0.2-0.7c-0.2-0.1-0.2,0.4-0.3,0.4c-0.2,0.1-0.2-0.2-0.3-0.2c-0.3-0.1-0.4,0.3-0.8,0
		c-0.2-0.1-0.2-0.2-0.3-0.4c-0.2-0.3-1.2-0.8-1.7-0.7c-0.4,0.1-0.5,0.6-0.9,0.9c0-0.5-0.4-0.1-0.5-0.4c0-0.1,0-0.4,0-0.4
		c-0.2-0.2-0.4,0-0.7-0.2c0,0-0.1-0.4-0.1-0.4c-0.3-0.3-0.7-0.6-1.2-0.2c-0.2,0.1-0.3,0.5-0.5,0.7c0.1-0.7-0.1-0.9-0.3-1.1
		c-0.2-0.2-0.5,0.3-0.8,0.2c-0.3-0.1-0.5-0.7-0.8-0.9c-0.2-0.1-0.6,0.1-1,0c-0.2,0-0.5-0.4-0.7-0.4c-0.3-0.1-0.7,0.1-0.9,0
		c-0.1,0-0.4-0.4-0.4-0.4c0,0-0.9,1-1,0.2c-0.1-0.8-0.1-0.2-0.4-0.2c-0.2,0-0.5-0.7-0.6,0.2c-0.4,0-0.2-0.7-0.4-0.9
		c-0.2-0.2-0.3,0.3-0.6,0.2c-0.1,0-0.1-0.6-0.3-0.4c-0.4,0.2,0,0.5-0.2,0.9c-0.3-0.2-0.3-0.5-0.6-0.4c-0.2,0-0.7,1-0.8,0.2
		c-0.1-1.1,0,0-0.4-0.2c-0.1-0.1-0.3-1-0.6-1.1c-0.3,0.4-1.5,0.5-1.8-0.4c-0.3,0-0.8-0.2-0.8,0.4c-0.3-0.2,0.2-0.6-0.1-0.9
		c-0.6,0.1-0.8,0.6-1.5,0.2c-0.5-0.3-1-1.8-1.3-0.2c-0.2-0.6-0.6-0.2-0.9-0.4c0,0-0.3-0.6-0.4-0.7c-0.1-0.1-0.3,0.1-0.4,0
		c-0.3-0.2-0.7-0.7-1.2-0.7C168.6,97.5,168.3,98,168.1,97.9z M124.5,121.1c-0.2,0.1-0.4,0.1-0.5,0.1c0-0.1,0-0.2,0.2-0.3
		C124.3,120.9,124.4,121,124.5,121.1z M112.9,120.5c-0.1,0.3-0.7,0.2-1.1,0.1c0-0.1,0-0.2,0.1-0.3
		C112.2,120.3,112.6,120.4,112.9,120.5z M118.5,119.4c-0.1,0.2-0.3,0.3-0.5,0.3c-0.1,0-0.1,0-0.2,0
		C117.7,119.4,118.2,119.3,118.5,119.4z M115.7,119.2c-0.1,0.1-0.2,0.1-0.3,0.1c-0.1,0-0.2-0.1-0.3-0.2
		C115.3,119.1,115.5,119.1,115.7,119.2z M111.1,118.9c0.5,0,1.2,0,1.7,0c-0.3,0.2-0.7,0.4-1,0.4C111.5,119.2,111,119.2,111.1,118.9z
		 M111,118.9c-0.1,0.1-0.2,0.2-0.2,0.3c-0.5,0.1-0.6-0.1-1-0.1C109.9,118.9,110.4,118.9,111,118.9z M105.8,120.3
		c-0.3,0.1-0.4-0.1-0.4-0.2c0.1,0,0.1-0.1,0.2-0.1C105.7,120.1,105.8,120.2,105.8,120.3z M104.6,120c0.1,0,0.3,0.1,0.4,0.1
		C104.9,120.2,104.6,120.2,104.6,120z M105.1,119.1c-0.1,0-0.1,0-0.2,0C105,119.1,105.1,119.1,105.1,119.1z M104.3,118.9
		c0,0,0,0.1,0,0.2c-0.2,0-0.3,0-0.5,0c0,0-0.1,0-0.1,0C103.8,118.9,104.1,118.9,104.3,118.9z M102.6,118.6c0.6-0.1,0.7,0.1,1,0.2
		C103.5,119,102.4,119,102.6,118.6z M101.2,119.4c-0.3,0.2-1.4,0.2-1.2-0.2C100.4,119.2,101.4,118.9,101.2,119.4z M98.8,118.4
		c0.8,0.2,1.6-0.2,1.7,0.3c-0.7,0-1.3,0-1.7,0.1C98.8,118.7,98.8,118.5,98.8,118.4z M101.4,120.8c0.4,0,0.7,0,1.1,0c0,0,0,0,0,0
		C102.2,121,101.8,120.9,101.4,120.8z M103.6,120.9c0.1,0,0.1,0,0.2,0C103.7,120.9,103.6,120.9,103.6,120.9z M137.5,125.2
		c-0.3,0.3-1.2,0.2-1.7,0.1C136,125.1,136.9,125.3,137.5,125.2z M134.7,125.2c-0.1,0.4-1,0.2-1.5,0.2
		C133.4,124.9,134.2,125.1,134.7,125.2z M128.1,124.9C130,125,127.4,126,128.1,124.9L128.1,124.9z M125,124.9c0.4,0,0.7,0,0.9,0.1
		c-0.1,0.2-0.5,0.2-0.9,0.2C125,125.1,125,125,125,124.9z M120.4,124.8c-0.4,0.5-1,0.2-1.7,0.3C118.8,124.6,119.7,124.7,120.4,124.8
		z M117.5,124.6c-0.1,0.4-1.3,0.4-1.7,0.2C115.8,124.5,116.9,124.7,117.5,124.6z M115.6,124.8c-0.2,0.2-0.8,0.3-1,0.1
		C114.6,124.6,115.4,124.6,115.6,124.8z M108.9,124.4c0,0,0,0.2,0,0.2c0.2,0.1,0.7-0.1,0.5,0.2c-0.4,0.2-0.4-0.2-0.5-0.2
		c-0.3-0.1-0.9,0.3-0.9-0.2C108.3,124.5,108.7,124.4,108.9,124.4z M107.6,129.2c0.3,0,0.3-0.1,0.5-0.1c0,0,0.3,0.1,0.5,0.1
		c0.7,0,1.4-0.1,1.9,0c0.1,0,0.2,0.3,0.5,0.2c0,0.1,0,0.2,0,0.3c0,0,0,0-0.1,0c-0.1,0-0.1,0-0.2,0.1c-0.2,0-0.4,0-0.6-0.1
		c-0.4-0.1-0.7-0.3-1-0.3c-0.4,0-1.4,0.2-2.2,0.1c-0.7,0-1.5-0.1-2.4-0.1C104.6,128.6,106.3,129.1,107.6,129.2z M103.8,127.8
		c0.1-0.1,0.3-0.3,0.9-0.2c0,0,0.1,0.2,0.2,0.1c0,0,0.9-0.3,1,0c0,0.5-1.8,0-2.1,0.3C103.6,128,103.7,127.9,103.8,127.8z
		 M102.8,129.2c0.3-0.2,1.2-0.1,1.2,0.2C103.6,129.5,102.7,129.7,102.8,129.2z M100.5,127.8c0,0.1,0,0.2,0,0.3
		c-0.4,0-0.5-0.1-0.7-0.1C99.9,127.9,100.2,127.8,100.5,127.8z M100.5,129.4c-0.3,0-0.6,0-0.9,0C99.5,128.9,100.7,128.9,100.5,129.4
		z M97.8,128.2c-0.2,0-0.5,0-0.7,0C97,127.7,97.9,127.7,97.8,128.2z M81.7,130.4C83.5,130.2,81.9,131.3,81.7,130.4L81.7,130.4z
		 M91.1,128.2c0.5,0,1,0,1.5,0C92.8,128.5,91,128.5,91.1,128.2z M90.1,128.5c-0.4,0.1-0.7,0.1-1-0.1C89,128,90.4,128.1,90.1,128.5z
		 M87.9,130.6c-0.2,0-0.5,0-0.7,0C87,130,88.1,130,87.9,130.6z M85,128.5c0.1,0.3-0.8-0.1-0.5,0.3C83.6,128.8,84.7,128.1,85,128.5z
		 M82.3,128.5c0.6,0,1.2-0.3,1.5,0c-0.2,0.2-0.7,0.2-1.2,0.2c-0.2,0.4,0.6,0.1,0.3,0.4c-0.8,0-0.9-0.5-1.9-0.4
		C81,128.2,81.8,128.5,82.3,128.5z M80.1,131.5c-0.2,0-0.5,0-0.7,0C79.4,131.3,79.9,131.3,80.1,131.5z M78.5,130.4
		c-0.1,0.3-0.5-0.1-0.9,0C77.7,130,78.4,130.2,78.5,130.4z M74.2,130.4c-0.2,0.2-0.8,0.2-1,0C73.1,130.1,74.4,130,74.2,130.4z
		 M73,130.8c0-0.3,0.8-0.3,1-0.1C73.9,130.9,73.3,131,73,130.8z M73.7,132.8C73.7,132.7,73.7,132.7,73.7,132.8
		c0.3-0.1,0.4-0.1,0.6-0.1C74,132.7,73.8,132.7,73.7,132.8z M97.3,135.2c-0.1-0.7,0.3-0.4,0.6-0.4c0.3-0.1,0.9-0.5,0.9,0.4
		C98.3,135.6,97.9,135,97.3,135.2z M110.6,139c-0.3,0-0.6,0.2-0.9,0.2c0,0,0,0,0,0c0.1,0,0.1,0,0.2,0c0.2-0.1,0.4-0.4,0.5-0.4
		c0.2,0,0.3,0.1,0.5,0.3C110.9,139,110.7,139,110.6,139z M111.8,139c0.1-0.1,0.3-0.1,0.4-0.1c0.2,0,0.2,0.3,0.4,0.2
		c0.3-0.1,0.4,0,0.6,0c-0.1,0-0.2,0-0.3,0C112.6,139.2,112.2,139.1,111.8,139z M113.6,139.1c0.1-0.1,0.2-0.2,0.3-0.2
		c0.1,0,0.3,0.1,0.4,0.2c-0.2,0-0.4,0-0.6,0C113.6,139.1,113.6,139.1,113.6,139.1z M146.2,138.6c-1.2,0-2.3,0.2-3.4,0.2
		c-0.7,0-1.3-0.2-1.9-0.2c-0.1,0-0.5,0.2-0.7,0.2c-0.6,0.1-1.5,0.1-2.1,0c-0.2,0-0.5-0.2-0.7-0.2c-0.2,0-0.3,0.3-0.5,0.3
		c0.1,0-0.1-0.1-0.2-0.1c-0.6-0.1-1.1,0.2-1.4,0.2c-1.7,0.1-3.7,0-5.6,0c-0.8,0-1.6,0.2-2.4,0.1c-0.3,0-0.6-0.1-0.9-0.1
		c-0.6,0-1.1,0.2-1.7,0.2c-0.3,0-0.6-0.1-0.9-0.1c-0.6,0-1.2,0.1-1.9,0.1c-0.3,0-0.4-0.1-0.7-0.1c-0.1,0-0.4,0.1-0.7,0.1
		c-0.3,0-0.6-0.1-0.9-0.1c-0.6,0-1.1,0.2-1.7,0.2c-0.4,0-0.8-0.2-1.2-0.2c-0.7-0.1-1.5-0.1-2.2-0.1c0.2-0.1,0.3-0.5,0.5-0.6
		c0.1,0,0.2,0.2,0.3,0.2c1.1,0.3,2.9-0.1,4-0.2c0.1,0,0.2,0.3,0.3,0.2c0,0,0.1-0.4,0.1-0.4c0.4-0.4,0.8,0.4,1.1,0.4
		c0.2,0,0.5-0.4,0.8-0.4c0.5-0.1,0.9,0.2,1.4,0.2c0.6,0,1.2-0.4,1.8-0.4c0.2,0,0.4,0.2,0.6,0.2c0.7-0.1,1.4-0.4,2.1-0.4
		c0.2,0,0.4,0.2,0.4,0.2c0.2,0,0.2-0.3,0.4-0.2c0.1,0,0.3,0.4,0.3,0.4c0.2,0,0.2-0.2,0.3-0.2c0.2,0,0.2,0.2,0.4,0.2
		c0.7-0.1,1.5-0.5,2.2-0.2c0.1,0,0.3,0.5,0.4,0.4c0,0,0.3-0.4,0.3-0.4c0.2-0.1,0.4,0.1,0.5,0c0.2-0.2,0.3-1,0.6-0.9
		c0.6,1.2,1.7,0.6,2.6,0.7c0.4,0,0.8,0.4,1.2,0.4c0.2,0,0.4-0.2,0.6-0.2c0.2,0,0.3,0.3,0.4,0.2c0.3,0,0.6-0.4,0.9-0.4
		c0.5-0.1,1,0.2,1.5,0.2c0.5,0,0.8-0.4,1.2-0.2c0.2,0.1,0.3,0.4,0.6,0.4c0.1,0,0.4-0.4,0.5-0.4c0.7-0.2,1.7,0.4,2.2,0.2
		c0.1,0,0.1-0.3,0.2-0.4c0,0,0.1,0,0.1,0c0.1,0.1,0.3,0.3,0.4,0.4c0.6,0.3,1,0,1.4,0c0.2,0,0.5,0.2,0.8,0.2c0.4,0,0.6-0.1,0.8,0
		c0,0,0,0.2,0.1,0.3c-0.7,0.1-1.4,0.3-1.9,0.3C146.9,138.8,146.6,138.6,146.2,138.6z M175.4,149.7c0,0,0,0.4,0,0.4
		c-0.2,0.1-0.4-0.2-0.7-0.2c-0.5,0-1,0.5-1.5,0.2c0-0.9,0.7-0.8,1-0.9c0.1,0,0.1,0.2,0.2,0.2c0.2,0,0.2-0.2,0.3-0.2
		c0.3,0,0.6,0.3,1.1,0C176,149.9,175.5,149.6,175.4,149.7z M186.7,147.6c0.2,0,0.3,0,0.5,0.1c-0.1,0.1-0.2,0.1-0.3,0.1
		C186.8,147.7,186.7,147.7,186.7,147.6z M188.3,148c-0.1,0-0.1-0.2-0.2-0.3c0.2,0,0.3,0,0.5-0.1C188.5,147.7,188.5,148,188.3,148z
		 M188.8,147.5c0.2,0,0.5-0.1,0.7-0.1c-0.1,0.1-0.3,0.2-0.4,0.3C189.1,147.8,188.9,147.6,188.8,147.5z M190.2,147.4
		c0.1,0,0.1,0,0.2,0c0.1,0,0.2,0,0.3,0c-0.1,0.1-0.1,0.2-0.2,0.2C190.4,147.5,190.3,147.4,190.2,147.4z M191,147.3
		c0.4,0,0.7,0,0.9,0c-0.1,0.1-0.3,0.3-0.4,0.4C191.3,147.8,191.2,147.5,191,147.3z M197.1,147.7c-0.4-0.4-0.7-0.3-1.3,0
		c-0.2,0.1-0.4,0.4-0.5,0.4c-0.2,0.1-0.4-0.2-0.7-0.2c-0.4,0-0.6,0.1-0.9,0c-0.4-0.2,0-0.6-0.3-0.2c-0.1,0.1-0.6,0.4-0.9,0.2
		c-0.4,0,0-0.2-0.1-0.7c0.6-0.1,1.2,0,1.9,0c0.5,0,1-0.2,1.5-0.2c0.2,0,0.3,0.1,0.7,0.1c0.3,0,0.7-0.1,1.1-0.1
		C197.3,147.3,197.2,147.5,197.1,147.7z M202.8,146.6c-0.2,0-0.4,0.4-0.5,0.4c-0.2,0-0.4-0.3-0.5-0.2c-0.3,0.1-0.4,0.4-0.7,0.4
		c-0.3,0-0.6-0.2-0.9-0.2c-0.2,0-0.4,0.2-0.5,0.2c-0.1,0-0.2-0.1-0.2-0.2c0.1,0,0.2-0.1,0.3-0.1c0.4-0.1,0.9-0.1,1.2-0.1
		c0.3-0.1,0.4-0.2,0.7-0.2c0.8-0.1,2-0.1,2.9-0.1c0.1,0,0.2,0,0.2,0c0,0,0,0,0,0C204.1,147.1,203.5,146.6,202.8,146.6z M220.5,149.3
		c-0.1-0.7,0.6-0.9,0.8-0.4C221.4,149.7,220.8,149.1,220.5,149.3z M225.3,149.5c-0.2,0.6-0.3-0.1-0.5-0.2c-0.6-0.2-1.4,0.3-1.9-0.2
		c0.3-0.7,1.2-1.3,1.9-0.9c0,0,0,0.8,0,0.9C224.9,149.2,225.8,149,225.3,149.5z M236.1,149.1C236.8,148.1,236.7,150.8,236.1,149.1
		L236.1,149.1z M236.5,151c-0.1-0.8,0.5-0.4,0.6-0.2C237.1,151.3,236.5,151.5,236.5,151z M242,147.7c-0.4,0-0.8,0.1-1.2,0
		c-0.4-0.1-0.4-0.5-1-0.4c-0.2,0-0.2,0.5-0.4,0.7c-0.3,0.2-0.6-0.1-1,0c-0.6,0.1-1.4,0.3-1.9,0.2c-0.2,0-0.4-0.5-0.6-0.4
		c-0.3,0-0.6,0.8-0.9,0.9c0.1,0-0.2-0.4-0.4-0.4c-0.3,0-0.5,0.2-0.8,0.2c-0.2,0-0.3-0.2-0.4-0.2c-0.8,0.1-2.2-0.1-3.4,0.2
		c-0.2,0-0.4,0.3-0.5,0.4c-0.5,0.2-1,0.1-1.5,0.2c-0.4,0.1-0.7,0.4-1.1,0.2c0-0.5,0.1-0.6,0.1-0.9c-0.3,0-0.3,0.6-0.6,0.7
		c-0.2,0.1-0.6-0.3-0.8-0.4c0-0.9,0.6-0.5,0.8-0.7c0.3-0.3,1.1,0,1.5-0.2c0.1-0.1,0.5,0,0.4-0.7c0.3-0.1,0.3,0.6,0.6,0.7
		c0.3,0.3,0.3-0.4,0.6-0.4c0.3-0.1,0.7,0.5,1,0.4c0.6-0.1,1-0.9,1.7-1.1c0.5-0.2,0.9,0.4,1.4,0.4c0.2,0,0.4-0.4,0.7-0.4
		c0.2-0.1,0.3,0.2,0.4,0.2c0.2,0,0.2-0.2,0.3-0.2c0.2,0,0.3,0.2,0.4,0.2c0.2,0,0.5-0.3,0.7-0.4c0.3-0.1,0.5,0,0.8-0.2
		c0.1-0.1,0.3-0.4,0.4-0.4c0.2-0.1,0.4,0.1,0.7,0c0.2,0,0.3-0.3,0.4-0.2c0.3,0.1,0.2,0.4,0.4,0.7c0.3-0.6,0.7-0.4,0.9-0.7
		c0.1-0.1,0.3-0.3,0.7-0.2c-0.1,1.1,0.2,0.8,0.6,1.3c0.2,0.3,0.2,0.6,0.3,0.7c0.5,0.3,1.2-0.8,1.5,0.2
		C242.7,148.5,242.2,147.7,242,147.7z M242.7,154.3c0-0.2,0-0.4,0-0.7c0.3-0.1,0.4,0,0.5,0.2C243.2,154.2,243,154.4,242.7,154.3z
		 M243.3,153c0.2-1.2,1.3-0.9,1.9-1.3c0,0.4-0.1,0.5-0.1,0.9c0,0.5,0.5-0.1,0.3,0.7C244.7,153.4,244,153.5,243.3,153z M246,155.2
		c-0.3,0-0.5,0-0.8,0c0-0.1,0-0.3,0-0.4c0.3,0,0.5,0,0.8,0C246,154.9,246,155.1,246,155.2z M324.4,135.8c-0.8,0-1.6,0.4-2.1,0.1
		c0.1-0.1,0.4-0.4,0.7-0.4c0.4-0.1,0.4,0.1,0.7,0.1c0.7,0,1.6-0.4,2.1-0.1C325.8,136,325.1,135.8,324.4,135.8z M327,135.2
		c0.9-0.1,2-0.3,2.7,0C329.2,135.4,327.2,135.8,327,135.2z M334.7,135.1c-0.6,0-1.4,0.1-2.1,0.1c-0.3,0-0.6-0.1-0.9-0.1
		c-0.4,0-1.4,0.8-1.7,0c1,0,2.2-0.3,3.6-0.3c0.3,0,1.9,0,1.9,0.3C335.3,135.3,335,135.1,334.7,135.1z M333.7,130.6
		c0.3,0.2-0.2,0.5-0.7,0.6C332.8,130.7,333.2,130.6,333.7,130.6z M340.5,134.7c-0.3,0-0.3,0.1-0.5,0.1c-0.4,0-0.5-0.1-0.7-0.1
		c-0.1,0-0.3,0.3-0.3,0.3c-0.4,0.1-0.5-0.1-0.7-0.1c-0.3,0-0.5,0.1-0.9,0.1c-0.5,0-1-0.2-1.5-0.1c0-0.5,0.8-0.2,1.4-0.2
		c0.6,0,1.3-0.2,1.9-0.2c0.3,0,0.5,0.2,0.5,0.2c0.9,0,1.7-0.5,2.6-0.2C341.8,134.9,341,134.7,340.5,134.7z M341.3,130.6
		c0-0.3,0.6-0.3,0.9-0.1C342,130.7,341.6,130.8,341.3,130.6z M347.7,134.3c-1.3,0.3-3.1,0-4.1,0c0.6-0.3,1.7-0.1,2.7-0.2
		c0.6,0,1.1-0.4,1.5-0.1C347.9,134.2,347.7,134.2,347.7,134.3z M348,129.9c-0.3,0-0.9-0.2-1.2-0.2c-0.6,0-1.2,0.2-1.9,0.2
		c-0.3,0-0.8-0.1-1.2-0.1c-1.3,0.1-3.4,0-5.1,0.1c-0.8,0-2.3,0.3-3.6,0.3c-0.4,0-0.9-0.1-1.4-0.1c-0.6,0-1.1,0.3-1.7,0.3
		c-0.3,0-0.7-0.1-1-0.1c-1.3,0-2.5,0.1-3.8,0.1c-0.2-0.3,0.3-0.9,0.3-1.3c0.6,0.2,1.1-0.2,1.7-0.2c0.3,0,0.6,0.2,1,0.2
		c0.3,0,0.6-0.1,1-0.1c0.3,0,0.8,0.1,1,0.1c0.3,0,0.5-0.2,0.9-0.2c0.5-0.1,1.3,0,1.9,0c0.4,0,0.9-0.1,1-0.1c0.4,0,0.9,0.3,1.4,0.3
		c0.5,0,0.7-0.3,1.2-0.3c0.1,0,0.4,0.2,0.5,0.2c0.2,0,0.7-0.1,1-0.1c0.4,0,0.8,0,1,0c1.1-0.1,1.7-0.4,2.6,0.2
		c1.8-0.5,3.8-0.1,5.3,0.3C348.7,129.5,348.4,129.9,348,129.9z M354.7,133.7c-0.1-0.5,0.6-0.3,1-0.2
		C355.7,133.7,355.1,133.7,354.7,133.7z"/>
</g>
</svg>
